<svg version="1.1" xmlns="http://www.w3.org/2000/svg" xmlns:xlink="http://www.w3.org/1999/xlink" width="481.9689110867545" height="280"><style xmlns="http://www.w3.org/1999/xhtml"></style><defs/><g transform="translate(0,0)"><g><rect fill="#FFFFFF" stroke="none" x="0" y="0" width="481.9689110867545" height="280"/></g><g transform="translate(0,0) matrix(1,0,0,1,10,30)"><g><g transform="translate(0,0) scale(1.4,2.3)"><g><path fill="#c9daf8" stroke="none" d="M 0 0 L 100 0 Q 100 0 100 0 L 100 100 Q 100 100 100 100 L 0 100 Q 0 100 0 100 L 0 0 Q 0 0 0 0 Z"/><g transform="scale(0.7142857142857143,0.4347826086956522)"><path fill="none" stroke="none" d="M 0 0 L 140 0 Q 140 0 140 0 L 140 229.99999999999997 Q 140 229.99999999999997 140 229.99999999999997 L 0 229.99999999999997 Q 0 229.99999999999997 0 229.99999999999997 L 0 0 Q 0 0 0 0 Z"/><path fill="none" stroke="#333333" d="M 0 0 M 0 0 L 140 0 Q 140 0 140 0 L 140 229.99999999999997 Q 140 229.99999999999997 140 229.99999999999997 L 0 229.99999999999997 Q 0 229.99999999999997 0 229.99999999999997 L 0 0 Q 0 0 0 0 Z" stroke-miterlimit="10" stroke-width="2"/></g></g></g></g></g><g transform="matrix(1,0,0,1,21,10)"><g><g><rect fill="rgb(0,0,0)" stroke="none" x="0" y="0" width="119" height="14" fill-opacity="0"/></g></g><g><g><rect fill="rgb(0,0,0)" stroke="none" x="0" y="0" width="119" height="14" fill-opacity="0"/></g></g><g><g><rect fill="rgb(0,0,0)" stroke="none" x="26.671875" y="0" width="66" height="14" fill-opacity="0"/></g></g><g><g><rect fill="rgb(0,0,0)" stroke="none" x="26.671875" y="0" width="66" height="14" fill-opacity="0"/></g><text fill="rgb(0, 0, 0)" stroke="none" font-family="Arial" font-size="12px" font-style="normal" font-weight="normal" text-decoration="" line-height="14px" x="27" y="12">App</text><text fill="rgb(0, 0, 0)" stroke="none" font-family="Arial" font-size="12px" font-style="normal" font-weight="normal" text-decoration="" line-height="14px" x="51" y="12">Context</text></g></g><g transform="translate(0,0) matrix(1,0,0,1,30,45)"><g><g transform="translate(0,0) scale(1,0.5)"><g><path fill="#c9daf8" stroke="none" d="M 0 0 L 100 0 Q 100 0 100 0 L 100 100 Q 100 100 100 100 L 0 100 Q 0 100 0 100 L 0 0 Q 0 0 0 0 Z"/><g transform="scale(1,2)"><path fill="none" stroke="none" d="M 0 0 L 100 0 Q 100 0 100 0 L 100 50 Q 100 50 100 50 L 0 50 Q 0 50 0 50 L 0 0 Q 0 0 0 0 Z"/><path fill="none" stroke="#333333" d="M 0 0 M 0 0 L 100 0 Q 100 0 100 0 L 100 50 Q 100 50 100 50 L 0 50 Q 0 50 0 50 L 0 0 Q 0 0 0 0 Z" stroke-miterlimit="10" stroke-width="2"/></g></g></g></g></g><g transform="matrix(1,0,0,1,40,63)"><g><g><rect fill="rgb(0,0,0)" stroke="none" x="0" y="0" width="81" height="14" fill-opacity="0"/></g></g><g><g><rect fill="rgb(0,0,0)" stroke="none" x="0" y="0" width="81" height="14" fill-opacity="0"/></g></g><g><g><rect fill="rgb(0,0,0)" stroke="none" x="23.15625" y="0" width="35" height="14" fill-opacity="0"/></g></g><g><g><rect fill="rgb(0,0,0)" stroke="none" x="23.15625" y="0" width="35" height="14" fill-opacity="0"/></g><text fill="rgb(0, 0, 0)" stroke="none" font-family="Arial" font-size="12px" font-style="normal" font-weight="normal" text-decoration="" line-height="14px" x="23.15625" y="12">Config</text></g></g><g transform="translate(0,0) matrix(1,0,0,1,30,95)"><g><g transform="translate(0,0) scale(1,0.5)"><g><path fill="#c9daf8" stroke="none" d="M 0 0 L 100 0 Q 100 0 100 0 L 100 100 Q 100 100 100 100 L 0 100 Q 0 100 0 100 L 0 0 Q 0 0 0 0 Z"/><g transform="scale(1,2)"><path fill="none" stroke="none" d="M 0 0 L 100 0 Q 100 0 100 0 L 100 50 Q 100 50 100 50 L 0 50 Q 0 50 0 50 L 0 0 Q 0 0 0 0 Z"/><path fill="none" stroke="#333333" d="M 0 0 M 0 0 L 100 0 Q 100 0 100 0 L 100 50 Q 100 50 100 50 L 0 50 Q 0 50 0 50 L 0 0 Q 0 0 0 0 Z" stroke-miterlimit="10" stroke-width="2"/></g></g></g></g></g><g transform="matrix(1,0,0,1,40,113)"><g><g><rect fill="rgb(0,0,0)" stroke="none" x="0" y="0" width="81" height="14" fill-opacity="0"/></g></g><g><g><rect fill="rgb(0,0,0)" stroke="none" x="0" y="0" width="81" height="14" fill-opacity="0"/></g></g><g><g><rect fill="rgb(0,0,0)" stroke="none" x="15.828125" y="0" width="49" height="14" fill-opacity="0"/></g></g><g><g><rect fill="rgb(0,0,0)" stroke="none" x="15.828125" y="0" width="49" height="14" fill-opacity="0"/></g><text fill="rgb(0, 0, 0)" stroke="none" font-family="Arial" font-size="12px" font-style="normal" font-weight="normal" text-decoration="" line-height="14px" x="15.828125" y="12">Factories</text></g></g><g transform="translate(0,0) matrix(1,0,0,1,30,145)"><g><g transform="translate(0,0) scale(1,0.5)"><g><path fill="#c9daf8" stroke="none" d="M 0 0 L 100 0 Q 100 0 100 0 L 100 100 Q 100 100 100 100 L 0 100 Q 0 100 0 100 L 0 0 Q 0 0 0 0 Z"/><g transform="scale(1,2)"><path fill="none" stroke="none" d="M 0 0 L 100 0 Q 100 0 100 0 L 100 50 Q 100 50 100 50 L 0 50 Q 0 50 0 50 L 0 0 Q 0 0 0 0 Z"/><path fill="none" stroke="#333333" d="M 0 0 M 0 0 L 100 0 Q 100 0 100 0 L 100 50 Q 100 50 100 50 L 0 50 Q 0 50 0 50 L 0 0 Q 0 0 0 0 Z" stroke-miterlimit="10" stroke-width="2"/></g></g></g></g></g><g transform="matrix(1,0,0,1,40,163)"><g><g><rect fill="rgb(0,0,0)" stroke="none" x="0" y="0" width="81" height="14" fill-opacity="0"/></g></g><g><g><rect fill="rgb(0,0,0)" stroke="none" x="0" y="0" width="81" height="14" fill-opacity="0"/></g></g><g><g><rect fill="rgb(0,0,0)" stroke="none" x="23.5" y="0" width="34" height="14" fill-opacity="0"/></g></g><g><g><rect fill="rgb(0,0,0)" stroke="none" x="23.5" y="0" width="34" height="14" fill-opacity="0"/></g><text fill="rgb(0, 0, 0)" stroke="none" font-family="Arial" font-size="12px" font-style="normal" font-weight="normal" text-decoration="" line-height="14px" x="23.5" y="12">Hooks</text></g></g><g transform="translate(0,0) matrix(1,0,0,1,30,195)"><g><g transform="translate(0,0) scale(1,0.5)"><g><path fill="#c9daf8" stroke="none" d="M 0 0 L 100 0 Q 100 0 100 0 L 100 100 Q 100 100 100 100 L 0 100 Q 0 100 0 100 L 0 0 Q 0 0 0 0 Z"/><g transform="scale(1,2)"><path fill="none" stroke="none" d="M 0 0 L 100 0 Q 100 0 100 0 L 100 50 Q 100 50 100 50 L 0 50 Q 0 50 0 50 L 0 0 Q 0 0 0 0 Z"/><path fill="none" stroke="#333333" d="M 0 0 M 0 0 L 100 0 Q 100 0 100 0 L 100 50 Q 100 50 100 50 L 0 50 Q 0 50 0 50 L 0 0 Q 0 0 0 0 Z" stroke-miterlimit="10" stroke-width="2"/></g></g></g></g></g><g transform="matrix(1,0,0,1,40,213)"><g><g><rect fill="rgb(0,0,0)" stroke="none" x="0" y="0" width="81" height="14" fill-opacity="0"/></g></g><g><g><rect fill="rgb(0,0,0)" stroke="none" x="0" y="0" width="81" height="14" fill-opacity="0"/></g></g><g><g><rect fill="rgb(0,0,0)" stroke="none" x="35.5" y="0" width="10" height="14" fill-opacity="0"/></g></g><g><g><rect fill="rgb(0,0,0)" stroke="none" x="35.5" y="0" width="10" height="14" fill-opacity="0"/></g><text fill="rgb(0, 0, 0)" stroke="none" font-family="Arial" font-size="12px" font-style="normal" font-weight="normal" text-decoration="" line-height="14px" x="35.5" y="12">...</text></g></g><g transform="translate(0,0) matrix(1,0,0,1,260.9689110867545,52.5)"><g><g transform="translate(0,0) scale(0.9,0.9)"><g><path fill="#93c47d" stroke="none" d="M 100 50 A 50 50 0 1 0 99.99997500000208 50.04999999166668 Z"/><g transform="scale(1.1111111111111112,1.1111111111111112)"><path fill="none" stroke="#333333" d="M 45 0 M 45 0 C 69.8528115 0 90 20.147188500000002 90 45 C 90 69.8528115 69.8528115 90 45 90 C 20.147188500000002 90 0 69.8528115 0 45 C 0 20.147188500000002 20.147188500000002 0 45 0 Z" stroke-miterlimit="10" stroke-width="2"/></g></g></g></g></g><g transform="matrix(1,0,0,1,271,91)"><g><g><rect fill="rgb(0,0,0)" stroke="none" x="0" y="0" width="71" height="14" fill-opacity="0"/></g></g><g><g><rect fill="rgb(0,0,0)" stroke="none" x="0" y="0" width="71" height="14" fill-opacity="0"/></g></g><g><g><rect fill="rgb(0,0,0)" stroke="none" x="16.484375" y="0" width="39" height="14" fill-opacity="0"/></g></g><g><g><rect fill="rgb(0,0,0)" stroke="none" x="16.484375" y="0" width="39" height="14" fill-opacity="0"/></g><text fill="rgb(0, 0, 0)" stroke="none" font-family="Arial" font-size="12px" font-style="normal" font-weight="normal" text-decoration="" line-height="14px" x="16.484375" y="12">Default</text></g></g><g transform="translate(0,0) matrix(1,0,0,1,260.9689110867545,147.5)"><g><g transform="translate(0,0) scale(0.9,0.9)"><g><path fill="#6aa84f" stroke="none" d="M 100 50 A 50 50 0 1 0 99.99997500000208 50.04999999166668 Z"/><g transform="scale(1.1111111111111112,1.1111111111111112)"><path fill="none" stroke="#333333" d="M 45 0 M 45 0 C 69.8528115 0 90 20.147188500000002 90 45 C 90 69.8528115 69.8528115 90 45 90 C 20.147188500000002 90 0 69.8528115 0 45 C 0 20.147188500000002 20.147188500000002 0 45 0 Z" stroke-miterlimit="10" stroke-width="2"/></g></g></g></g></g><g transform="matrix(1,0,0,1,271,186)"><g><g><rect fill="rgb(0,0,0)" stroke="none" x="0" y="0" width="71" height="14" fill-opacity="0"/></g></g><g><g><rect fill="rgb(0,0,0)" stroke="none" x="0" y="0" width="71" height="14" fill-opacity="0"/></g></g><g><g><rect fill="rgb(0,0,0)" stroke="none" x="16.484375" y="0" width="39" height="14" fill-opacity="0"/></g></g><g><g><rect fill="rgb(0,0,0)" stroke="none" x="16.484375" y="0" width="39" height="14" fill-opacity="0"/></g><text fill="rgb(0, 0, 0)" stroke="none" font-family="Arial" font-size="12px" font-style="normal" font-weight="normal" text-decoration="" line-height="14px" x="16.484375" y="12">Testing</text></g></g><g transform="translate(0,0) matrix(1,0,0,1,365.9689110867545,52.5)"><g><g transform="translate(0,0) scale(0.9,0.9)"><g><path fill="#d9ead3" stroke="none" d="M 100 50 A 50 50 0 1 0 99.99997500000208 50.04999999166668 Z"/><g transform="scale(1.1111111111111112,1.1111111111111112)"><path fill="none" stroke="#333333" d="M 45 0 M 45 0 C 69.8528115 0 90 20.147188500000002 90 45 C 90 69.8528115 69.8528115 90 45 90 C 20.147188500000002 90 0 69.8528115 0 45 C 0 20.147188500000002 20.147188500000002 0 45 0 Z" stroke-miterlimit="10" stroke-width="2"/></g></g></g></g></g><g transform="matrix(1,0,0,1,376,91)"><g><g><rect fill="rgb(0,0,0)" stroke="none" x="0" y="0" width="71" height="14" fill-opacity="0"/></g></g><g><g><rect fill="rgb(0,0,0)" stroke="none" x="0" y="0" width="71" height="14" fill-opacity="0"/></g></g><g><g><rect fill="rgb(0,0,0)" stroke="none" x="6.8125" y="0" width="57" height="14" fill-opacity="0"/></g></g><g><g><rect fill="rgb(0,0,0)" stroke="none" x="6.8125" y="0" width="57" height="14" fill-opacity="0"/></g><text fill="rgb(0, 0, 0)" stroke="none" font-family="Arial" font-size="12px" font-style="normal" font-weight="normal" text-decoration="" line-height="14px" x="6.8125" y="12">Produciton</text></g></g><g transform="translate(0,0) matrix(1,0,0,1,168.96891108675447,120)"><g><g transform="translate(0,0) scale(0.92,0.5)"><g><g transform="scale(1.0869565217391304,2)"><path fill="#FFFFFF" stroke="none" d="M 0 15 L 67.00000000000001 15 L 67.00000000000001 0 L 92 25 L 67.00000000000001 50 L 67.00000000000001 35 L 0 35 L 0 15 Z"/><path fill="none" stroke="#333333" d="M 0 15 M 0 15 L 67.00000000000001 15 L 67.00000000000001 0 L 92 25 L 67.00000000000001 50 L 67.00000000000001 35 L 0 35 L 0 15 Z" stroke-miterlimit="10" stroke-width="2"/></g></g></g></g></g><g transform="matrix(1,0,0,1,179,138)"><g><g><rect fill="rgb(0,0,0)" stroke="none" x="0" y="0" width="73" height="14" fill-opacity="0"/></g></g><g><g><rect fill="rgb(0,0,0)" stroke="none" x="0" y="0" width="73" height="14" fill-opacity="0"/></g></g><g><g><rect fill="rgb(0,0,0)" stroke="none" x="8.96875" y="0" width="55" height="14" fill-opacity="0"/></g></g><g><g><rect fill="rgb(0,0,0)" stroke="none" x="8.96875" y="0" width="55" height="14" fill-opacity="0"/></g><text fill="rgb(0, 0, 0)" stroke="none" font-family="Arial" font-size="12px" font-style="normal" font-weight="normal" text-decoration="" line-height="14px" x="8.96875" y="12">Instantiate</text></g></g><g transform="translate(0,0) matrix(1,0,0,1,365.9689110867545,147.5)"><g><g transform="translate(0,0) scale(0.9,0.9)"><g><path fill="#b6d7a8" stroke="none" d="M 100 50 A 50 50 0 1 0 99.99997500000208 50.04999999166668 Z"/><g transform="scale(1.1111111111111112,1.1111111111111112)"><path fill="none" stroke="#333333" d="M 45 0 M 45 0 C 69.8528115 0 90 20.147188500000002 90 45 C 90 69.8528115 69.8528115 90 45 90 C 20.147188500000002 90 0 69.8528115 0 45 C 0 20.147188500000002 20.147188500000002 0 45 0 Z" stroke-miterlimit="10" stroke-width="2"/></g></g></g></g></g><g transform="matrix(1,0,0,1,376,186)"><g><g><rect fill="rgb(0,0,0)" stroke="none" x="0" y="0" width="71" height="14" fill-opacity="0"/></g></g><g><g><rect fill="rgb(0,0,0)" stroke="none" x="0" y="0" width="71" height="14" fill-opacity="0"/></g></g><g><g><rect fill="rgb(0,0,0)" stroke="none" x="11.484375" y="0" width="49" height="14" fill-opacity="0"/></g></g><g><g><rect fill="rgb(0,0,0)" stroke="none" x="11.484375" y="0" width="49" height="14" fill-opacity="0"/></g><text fill="rgb(0, 0, 0)" stroke="none" font-family="Arial" font-size="12px" font-style="normal" font-weight="normal" text-decoration="" line-height="14px" x="11" y="12">3rd</text><text fill="rgb(0, 0, 0)" stroke="none" font-family="Arial" font-size="12px" font-style="normal" font-weight="normal" text-decoration="" line-height="14px" x="29" y="12">-</text><text fill="rgb(0, 0, 0)" stroke="none" font-family="Arial" font-size="12px" font-style="normal" font-weight="normal" text-decoration="" line-height="14px" x="33" y="12">party</text></g></g></g></svg>