<svg version="1.1" xmlns="http://www.w3.org/2000/svg" xmlns:xlink="http://www.w3.org/1999/xlink" width="376" height="150"><style xmlns="http://www.w3.org/1999/xhtml"></style><defs><linearGradient id="iOceOitMqBrP" x1="0px" x2="0px" y1="100px" y2="-50px" gradientUnits="userSpaceOnUse"><stop offset="0" stop-color="#3c78d8"/><stop offset="1" stop-color="#FFFFFF"/></linearGradient><linearGradient id="mdNPggUTmhvX" x1="0px" x2="0px" y1="100px" y2="-50px" gradientUnits="userSpaceOnUse"><stop offset="0" stop-color="#000000"/><stop offset="1" stop-color="#FFFFFF"/></linearGradient><linearGradient id="sEPOmNerbqht" x1="0px" x2="0px" y1="100px" y2="-50px" gradientUnits="userSpaceOnUse"><stop offset="0" stop-color="#000000"/><stop offset="1" stop-color="#FFFFFF"/></linearGradient></defs><g transform="translate(0,0)"><g><rect fill="#FFFFFF" stroke="none" x="0" y="0" width="376" height="150"/></g><g transform="translate(0,0) matrix(1,0,0,1,10,100)"><g transform="translate(4,4) scale(1.0029411764705882,1.0333333333333334)"><g><g transform="translate(0,0) scale(3.4,0.3)"><g><g transform="scale(0.29411764705882354,3.3333333333333335)"><path fill="#000000" stroke="none" d="M 0 9 L 325 9 L 325 0 L 340 15 L 325 30 L 325 21 L 0 21 L 0 9 Z" opacity="0.294117647"/><path fill="none" stroke="rgb(0,0,0)" d="M 0 9 M 0 9 L 325 9 L 325 0 L 340 15 L 325 30 L 325 21 L 0 21 L 0 9 Z" stroke-opacity="0" stroke-miterlimit="10" stroke-width="2" opacity="0.294117647"/></g></g></g></g></g><g><g transform="translate(0,0) scale(3.4,0.3)"><g><g transform="scale(0.29411764705882354,3.3333333333333335)"><path fill="#1155cc" stroke="none" d="M 0 9 L 325 9 L 325 0 L 340 15 L 325 30 L 325 21 L 0 21 L 0 9 Z"/><path fill="none" stroke="#333333" d="M 0 9 M 0 9 L 325 9 L 325 0 L 340 15 L 325 30 L 325 21 L 0 21 L 0 9 Z" stroke-miterlimit="10" stroke-width="2"/></g></g></g></g></g><g transform="translate(0,0) matrix(1,0,0,1,130,10)"><g><g transform="translate(0,0) scale(1,0.75)"><g><path fill="url(#iOceOitMqBrP)" stroke="none" d="M 100 50 A 50 50 0 1 0 99.99997500000208 50.04999999166668 Z"/><g transform="scale(1,1.3333333333333333)"><path fill="url(#iOceOitMqBrP)" stroke="#333333" d="M 50 0 M 50 0 C 77.614235 0 100 16.78932375 100 37.5 C 100 58.21067625 77.614235 75 50 75 C 22.385765000000003 75 0 58.21067625 0 37.5 C 0 16.78932375 22.385765000000003 0 50 0 Z" stroke-miterlimit="10" stroke-width="2"/></g></g></g></g></g><g transform="matrix(1,0,0,1,140,41)"><g transform="translate(52,0) matrix(1,0,0,1,0,0) translate(-52,0)"><g><rect fill="rgb(0,0,0)" stroke="none" x="0" y="0" width="81" height="14" fill-opacity="0"/></g></g><g transform="translate(52,0) matrix(1,0,0,1,0,0) translate(-52,0)"><g><rect fill="rgb(0,0,0)" stroke="none" x="0" y="0" width="81" height="14" fill-opacity="0"/></g></g><g transform="translate(52,0) matrix(1,0,0,1,0,0) translate(-52,0)"><g><rect fill="rgb(0,0,0)" stroke="none" x="26" y="0" width="29" height="14" fill-opacity="0"/></g></g><g transform="translate(52,0) matrix(1,0,0,1,0,0) translate(-52,0)"><g><rect fill="rgb(0,0,0)" stroke="none" x="26" y="0" width="29" height="14" fill-opacity="0"/></g><text fill="rgb(0, 0, 0)" stroke="none" font-family="Arial" font-size="12px" font-style="normal" font-weight="normal" text-decoration="" line-height="14px" x="26" y="12">Logic</text></g></g><g transform="translate(0,0) matrix(1,0,0,1,10,10)"><g><g transform="translate(0,0) scale(1,0.75)"><g><path fill="url(#mdNPggUTmhvX)" stroke="none" d="M 0 0 L 100 0 Q 100 0 100 0 L 100 100 Q 100 100 100 100 L 0 100 Q 0 100 0 100 L 0 0 Q 0 0 0 0 Z"/><g transform="scale(1,1.3333333333333333)"><path fill="none" stroke="none" d="M 0 0 L 100 0 Q 100 0 100 0 L 100 75 Q 100 75 100 75 L 0 75 Q 0 75 0 75 L 0 0 Q 0 0 0 0 Z"/><path fill="url(#mdNPggUTmhvX)" stroke="#333333" d="M 0 0 M 0 0 L 100 0 Q 100 0 100 0 L 100 75 Q 100 75 100 75 L 0 75 Q 0 75 0 75 L 0 0 Q 0 0 0 0 Z" stroke-miterlimit="10" stroke-width="2"/></g></g></g></g></g><g transform="matrix(1,0,0,1,20,41)"><g transform="translate(42,0) matrix(1,0,0,1,0,0) translate(-42,0)"><g><rect fill="rgb(0,0,0)" stroke="none" x="0" y="0" width="81" height="14" fill-opacity="0"/></g></g><g transform="translate(42,0) matrix(1,0,0,1,0,0) translate(-42,0)"><g><rect fill="rgb(0,0,0)" stroke="none" x="0" y="0" width="81" height="14" fill-opacity="0"/></g></g><g transform="translate(42,0) matrix(1,0,0,1,0,0) translate(-42,0)"><g><rect fill="rgb(0,0,0)" stroke="none" x="21" y="0" width="39" height="14" fill-opacity="0"/></g></g><g transform="translate(42,0) matrix(1,0,0,1,0,0) translate(-42,0)"><g><rect fill="rgb(0,0,0)" stroke="none" x="21" y="0" width="39" height="14" fill-opacity="0"/></g><text fill="rgb(255, 255, 255)" stroke="none" font-family="Arial" font-size="12px" font-style="normal" font-weight="normal" text-decoration="" line-height="14px" x="21" y="12">Data</text><text fill="rgb(255, 255, 255)" stroke="none" font-family="Arial" font-size="12px" font-style="normal" font-weight="normal" text-decoration="" line-height="14px" x="50" y="12">In</text></g></g><g transform="translate(0,0) matrix(1,0,0,1,250,10)"><g><g transform="translate(0,0) scale(1,0.75)"><g><path fill="url(#sEPOmNerbqht)" stroke="none" d="M 0 0 L 100 0 Q 100 0 100 0 L 100 100 Q 100 100 100 100 L 0 100 Q 0 100 0 100 L 0 0 Q 0 0 0 0 Z"/><g transform="scale(1,1.3333333333333333)"><path fill="none" stroke="none" d="M 0 0 L 100 0 Q 100 0 100 0 L 100 75 Q 100 75 100 75 L 0 75 Q 0 75 0 75 L 0 0 Q 0 0 0 0 Z"/><path fill="url(#sEPOmNerbqht)" stroke="#333333" d="M 0 0 M 0 0 L 100 0 Q 100 0 100 0 L 100 75 Q 100 75 100 75 L 0 75 Q 0 75 0 75 L 0 0 Q 0 0 0 0 Z" stroke-miterlimit="10" stroke-width="2"/></g></g></g></g></g><g transform="matrix(1,0,0,1,260,41)"><g transform="translate(32,0) matrix(1,0,0,1,0,0) translate(-32,0)"><g><rect fill="rgb(0,0,0)" stroke="none" x="0" y="0" width="81" height="14" fill-opacity="0"/></g></g><g transform="translate(32,0) matrix(1,0,0,1,0,0) translate(-32,0)"><g><rect fill="rgb(0,0,0)" stroke="none" x="0" y="0" width="81" height="14" fill-opacity="0"/></g></g><g transform="translate(32,0) matrix(1,0,0,1,0,0) translate(-32,0)"><g><rect fill="rgb(0,0,0)" stroke="none" x="16" y="0" width="49" height="14" fill-opacity="0"/></g></g><g transform="translate(32,0) matrix(1,0,0,1,0,0) translate(-32,0)"><g><rect fill="rgb(0,0,0)" stroke="none" x="16" y="0" width="49" height="14" fill-opacity="0"/></g><text fill="rgb(255, 255, 255)" stroke="none" font-family="Arial" font-size="12px" font-style="normal" font-weight="normal" text-decoration="" line-height="14px" x="16" y="12">Data</text><text fill="rgb(255, 255, 255)" stroke="none" font-family="Arial" font-size="12px" font-style="normal" font-weight="normal" text-decoration="" line-height="14px" x="45" y="12">Out</text></g></g></g></svg>