<svg version="1.1" xmlns="http://www.w3.org/2000/svg" xmlns:xlink="http://www.w3.org/1999/xlink" width="326" height="105"><style xmlns="http://www.w3.org/1999/xhtml"></style><defs><linearGradient id="IzBiZZQiFtuK" x1="0px" x2="0px" y1="100px" y2="-50px" gradientUnits="userSpaceOnUse"><stop offset="0" stop-color="#434343"/><stop offset="1" stop-color="#FFFFFF"/></linearGradient><linearGradient id="hRViXHxJkElT" x1="0px" x2="0px" y1="100px" y2="-50px" gradientUnits="userSpaceOnUse"><stop offset="0" stop-color="#3c78d8"/><stop offset="1" stop-color="#FFFFFF"/></linearGradient><linearGradient id="RIUlEnceoCyu" x1="0px" x2="0px" y1="100px" y2="-50px" gradientUnits="userSpaceOnUse"><stop offset="0" stop-color="#a61c00"/><stop offset="1" stop-color="#FFFFFF"/></linearGradient></defs><g transform="translate(0,0)"><g><rect fill="#FFFFFF" stroke="none" x="0" y="0" width="326" height="105"/></g><g transform="translate(0,0) matrix(1,0,0,1,10,10)"><g transform="translate(4,4) scale(1.0133333333333334,1.0133333333333334)"><g><g transform="translate(0,0) scale(0.75,0.75)"><g><path fill="#000000" stroke="none" d="M 0 0 L 100 0 Q 100 0 100 0 L 100 100 Q 100 100 100 100 L 0 100 Q 0 100 0 100 L 0 0 Q 0 0 0 0 Z" opacity="0.294117647"/><g transform="scale(1.3333333333333333,1.3333333333333333)"><path fill="none" stroke="none" d="M 0 0 L 75 0 Q 75 0 75 0 L 75 75 Q 75 75 75 75 L 0 75 Q 0 75 0 75 L 0 0 Q 0 0 0 0 Z"/><path fill="none" stroke="rgb(0,0,0)" d="M 0 0 M 0 0 L 75 0 Q 75 0 75 0 L 75 75 Q 75 75 75 75 L 0 75 Q 0 75 0 75 L 0 0 Q 0 0 0 0 Z" stroke-opacity="0" stroke-miterlimit="10" stroke-width="2" opacity="0.294117647"/></g></g></g></g></g><g><g transform="translate(0,0) scale(0.75,0.75)"><g><path fill="url(#IzBiZZQiFtuK)" stroke="none" d="M 0 0 L 100 0 Q 100 0 100 0 L 100 100 Q 100 100 100 100 L 0 100 Q 0 100 0 100 L 0 0 Q 0 0 0 0 Z"/><g transform="scale(1.3333333333333333,1.3333333333333333)"><path fill="none" stroke="none" d="M 0 0 L 75 0 Q 75 0 75 0 L 75 75 Q 75 75 75 75 L 0 75 Q 0 75 0 75 L 0 0 Q 0 0 0 0 Z"/><path fill="url(#IzBiZZQiFtuK)" stroke="#333333" d="M 0 0 M 0 0 L 75 0 Q 75 0 75 0 L 75 75 Q 75 75 75 75 L 0 75 Q 0 75 0 75 L 0 0 Q 0 0 0 0 Z" stroke-miterlimit="10" stroke-width="2"/></g></g></g></g></g><g transform="matrix(1,0,0,1,20,41)"><g transform="translate(32,0) matrix(1,0,0,1,0,0) translate(-32,0)"><g><rect fill="rgb(0,0,0)" stroke="none" x="0" y="0" width="57" height="14" fill-opacity="0"/></g></g><g transform="translate(32,0) matrix(1,0,0,1,0,0) translate(-32,0)"><g><rect fill="rgb(0,0,0)" stroke="none" x="0" y="0" width="57" height="14" fill-opacity="0"/></g></g><g transform="translate(32,0) matrix(1,0,0,1,0,0) translate(-32,0)"><g><rect fill="rgb(0,0,0)" stroke="none" x="16" y="0" width="25" height="14" fill-opacity="0"/></g></g><g transform="translate(32,0) matrix(1,0,0,1,0,0) translate(-32,0)"><g><rect fill="rgb(0,0,0)" stroke="none" x="16" y="0" width="25" height="14" fill-opacity="0"/></g><text fill="rgb(255, 255, 255)" stroke="none" font-family="Arial" font-size="12px" font-style="normal" font-weight="normal" text-decoration="" line-height="14px" x="16" y="12">Data</text></g></g><g transform="translate(0,0) matrix(1,0,0,1,110,10)"><g transform="translate(4,4) scale(1.0133333333333334,1.0133333333333334)"><g><g transform="translate(0,0) scale(0.75,0.75)"><g><path fill="#000000" stroke="none" d="M 100 50 A 50 50 0 1 0 99.99997500000208 50.04999999166668 Z" opacity="0.294117647"/><g transform="scale(1.3333333333333333,1.3333333333333333)"><path fill="none" stroke="rgb(0,0,0)" d="M 37.5 0 M 37.5 0 C 58.21067625 0 75 16.78932375 75 37.5 C 75 58.21067625 58.21067625 75 37.5 75 C 16.78932375 75 0 58.21067625 0 37.5 C 0 16.78932375 16.78932375 0 37.5 0 Z" stroke-opacity="0" stroke-miterlimit="10" stroke-width="2" opacity="0.294117647"/></g></g></g></g></g><g><g transform="translate(0,0) scale(0.75,0.75)"><g><path fill="url(#hRViXHxJkElT)" stroke="none" d="M 100 50 A 50 50 0 1 0 99.99997500000208 50.04999999166668 Z"/><g transform="scale(1.3333333333333333,1.3333333333333333)"><path fill="url(#hRViXHxJkElT)" stroke="#333333" d="M 37.5 0 M 37.5 0 C 58.21067625 0 75 16.78932375 75 37.5 C 75 58.21067625 58.21067625 75 37.5 75 C 16.78932375 75 0 58.21067625 0 37.5 C 0 16.78932375 16.78932375 0 37.5 0 Z" stroke-miterlimit="10" stroke-width="2"/></g></g></g></g></g><g transform="matrix(1,0,0,1,120,41)"><g transform="translate(28,0) matrix(1,0,0,1,0,0) translate(-28,0)"><g><rect fill="rgb(0,0,0)" stroke="none" x="0" y="0" width="57" height="14" fill-opacity="0"/></g></g><g transform="translate(28,0) matrix(1,0,0,1,0,0) translate(-28,0)"><g><rect fill="rgb(0,0,0)" stroke="none" x="0" y="0" width="57" height="14" fill-opacity="0"/></g></g><g transform="translate(28,0) matrix(1,0,0,1,0,0) translate(-28,0)"><g><rect fill="rgb(0,0,0)" stroke="none" x="14" y="0" width="29" height="14" fill-opacity="0"/></g></g><g transform="translate(28,0) matrix(1,0,0,1,0,0) translate(-28,0)"><g><rect fill="rgb(0,0,0)" stroke="none" x="14" y="0" width="29" height="14" fill-opacity="0"/></g><text fill="rgb(255, 255, 255)" stroke="none" font-family="Arial" font-size="12px" font-style="normal" font-weight="normal" text-decoration="" line-height="14px" x="14" y="12">Logic</text></g></g><g transform="translate(0,0) matrix(1,0,0,1,200,10)"><g transform="translate(4,4) scale(1.01,1.0133333333333334)"><g><g transform="translate(0,0) scale(1,0.75)"><g><g transform="scale(1,1.3333333333333333)"><path fill="#000000" stroke="none" d="M 50 0 L 100 75 L 0 75 L 50 0 Z" opacity="0.294117647"/><path fill="none" stroke="rgb(0,0,0)" d="M 50 0 M 50 0 L 100 75 L 0 75 L 50 0 Z" stroke-opacity="0" stroke-miterlimit="10" stroke-width="2" opacity="0.294117647"/></g></g></g></g></g><g><g transform="translate(0,0) scale(1,0.75)"><g><g transform="scale(1,1.3333333333333333)"><path fill="url(#RIUlEnceoCyu)" stroke="none" d="M 50 0 L 100 75 L 0 75 L 50 0 Z"/><path fill="url(#RIUlEnceoCyu)" stroke="#333333" d="M 50 0 M 50 0 L 100 75 L 0 75 L 50 0 Z" stroke-miterlimit="10" stroke-width="2"/></g></g></g></g></g><g transform="matrix(1,0,0,1,210,41)"><g transform="translate(42,0) matrix(1,0,0,1,0,0) translate(-42,0)"><g><rect fill="rgb(0,0,0)" stroke="none" x="0" y="0" width="81" height="14" fill-opacity="0"/></g></g><g transform="translate(42,0) matrix(1,0,0,1,0,0) translate(-42,0)"><g><rect fill="rgb(0,0,0)" stroke="none" x="0" y="0" width="81" height="14" fill-opacity="0"/></g></g><g transform="translate(42,0) matrix(1,0,0,1,0,0) translate(-42,0)"><g><rect fill="rgb(0,0,0)" stroke="none" x="21" y="0" width="40" height="14" fill-opacity="0"/></g></g><g transform="translate(42,0) matrix(1,0,0,1,0,0) translate(-42,0)"><g><rect fill="rgb(0,0,0)" stroke="none" x="21" y="0" width="40" height="14" fill-opacity="0"/></g><text fill="rgb(255, 255, 255)" stroke="none" font-family="Arial" font-size="12px" font-style="normal" font-weight="normal" text-decoration="" line-height="14px" x="21" y="12">Service</text></g></g></g></svg>