<svg version="1.1" xmlns="http://www.w3.org/2000/svg" xmlns:xlink="http://www.w3.org/1999/xlink" width="226" height="220"><style xmlns="http://www.w3.org/1999/xhtml"></style><defs><linearGradient id="tAAMICWafPCm" x1="0px" x2="0px" y1="100px" y2="-50px" gradientUnits="userSpaceOnUse"><stop offset="0" stop-color="#3c78d8"/><stop offset="1" stop-color="#FFFFFF"/></linearGradient><linearGradient id="kbhbxWafCIMU" x1="0px" x2="0px" y1="100px" y2="-50px" gradientUnits="userSpaceOnUse"><stop offset="0" stop-color="#000000"/><stop offset="1" stop-color="#FFFFFF"/></linearGradient></defs><g transform="translate(0,0)"><g><rect fill="#FFFFFF" stroke="none" x="0" y="0" width="226" height="220"/></g><g transform="translate(0,0) matrix(1,0,0,1,0,0)"><g><g transform="translate(0,0) scale(2,2)"><g><path fill="url(#tAAMICWafPCm)" stroke="none" d="M 0 0 L 100 0 Q 100 0 100 0 L 100 100 Q 100 100 100 100 L 0 100 Q 0 100 0 100 L 0 0 Q 0 0 0 0 Z"/><g transform="scale(0.5,0.5)"><path fill="none" stroke="none" d="M 0 0 L 200 0 Q 200 0 200 0 L 200 200 Q 200 200 200 200 L 0 200 Q 0 200 0 200 L 0 0 Q 0 0 0 0 Z"/><path fill="url(#tAAMICWafPCm)" stroke="#333333" d="M 0 0 M 0 0 L 200 0 Q 200 0 200 0 L 200 200 Q 200 200 200 200 L 0 200 Q 0 200 0 200 L 0 0 Q 0 0 0 0 Z" stroke-miterlimit="10" stroke-width="2"/></g></g></g></g></g><g transform="matrix(1,0,0,1,10,8)"><g transform="translate(100,0) matrix(1,0,0,1,0,0) translate(-100,0)"><g><rect fill="rgb(0,0,0)" stroke="none" x="0" y="0" width="181" height="14" fill-opacity="0"/></g></g><g transform="translate(100,0) matrix(1,0,0,1,0,0) translate(-100,0)"><g><rect fill="rgb(0,0,0)" stroke="none" x="0" y="0" width="181" height="14" fill-opacity="0"/></g></g><g transform="translate(100,0) matrix(1,0,0,1,0,0) translate(-100,0)"><g><rect fill="rgb(0,0,0)" stroke="none" x="50" y="0" width="81" height="14" fill-opacity="0"/></g></g><g transform="translate(100,0) matrix(1,0,0,1,0,0) translate(-100,0)"><g><rect fill="rgb(0,0,0)" stroke="none" x="50" y="0" width="81" height="14" fill-opacity="0"/></g><text fill="rgb(0, 0, 0)" stroke="none" font-family="Arial" font-size="12px" font-style="normal" font-weight="normal" text-decoration="" line-height="14px" x="50" y="12">Some</text><text fill="rgb(0, 0, 0)" stroke="none" font-family="Arial" font-size="12px" font-style="normal" font-weight="normal" text-decoration="" line-height="14px" x="85" y="12">Function</text></g></g><g transform="translate(0,0) matrix(1,0,0,1,50,62.5)"><g><g transform="translate(0,0) scale(1,0.75)"><g><path fill="url(#kbhbxWafCIMU)" stroke="none" d="M 0 0 L 100 0 Q 100 0 100 0 L 100 100 Q 100 100 100 100 L 0 100 Q 0 100 0 100 L 0 0 Q 0 0 0 0 Z"/><g transform="scale(1,1.3333333333333333)"><path fill="none" stroke="none" d="M 0 0 L 100 0 Q 100 0 100 0 L 100 75 Q 100 75 100 75 L 0 75 Q 0 75 0 75 L 0 0 Q 0 0 0 0 Z"/><path fill="url(#kbhbxWafCIMU)" stroke="#333333" d="M 0 0 M 0 0 L 100 0 Q 100 0 100 0 L 100 75 Q 100 75 100 75 L 0 75 Q 0 75 0 75 L 0 0 Q 0 0 0 0 Z" stroke-miterlimit="10" stroke-width="2"/></g></g></g></g></g><g transform="matrix(1,0,0,1,60,93)"><g transform="translate(6,0) matrix(1,0,0,1,0,0) translate(-6,0)"><g><rect fill="rgb(0,0,0)" stroke="none" x="0" y="0" width="81" height="14" fill-opacity="0"/></g></g><g transform="translate(6,0) matrix(1,0,0,1,0,0) translate(-6,0)"><g><rect fill="rgb(0,0,0)" stroke="none" x="0" y="0" width="81" height="14" fill-opacity="0"/></g></g><g transform="translate(6,0) matrix(1,0,0,1,0,0) translate(-6,0)"><g><rect fill="rgb(0,0,0)" stroke="none" x="3" y="0" width="75" height="14" fill-opacity="0"/></g></g><g transform="translate(6,0) matrix(1,0,0,1,0,0) translate(-6,0)"><g><rect fill="rgb(0,0,0)" stroke="none" x="3" y="0" width="75" height="14" fill-opacity="0"/></g><text fill="rgb(255, 255, 255)" stroke="none" font-family="Arial" font-size="12px" font-style="normal" font-weight="normal" text-decoration="" line-height="14px" x="3" y="12">Database</text><text fill="rgb(255, 255, 255)" stroke="none" font-family="Arial" font-size="12px" font-style="normal" font-weight="normal" text-decoration="" line-height="14px" x="58" y="12">Call</text></g></g><g transform="translate(0,0) matrix(6.123233995736766e-17,1,-1,6.123233995736766e-17,49.99999999999999,30)"><g transform="translate(4,-4) scale(1.0066666666666666,1.0333333333333334)"><g><g transform="translate(0,0) scale(1.5,0.3)"><g><g transform="scale(0.6666666666666666,3.3333333333333335)"><path fill="#000000" stroke="none" d="M 0 9 L 135 9 L 135 0 L 150 15 L 135 30 L 135 21 L 0 21 L 0 9 Z" opacity="0.294117647"/><path fill="none" stroke="rgb(0,0,0)" d="M 0 9 M 0 9 L 135 9 L 135 0 L 150 15 L 135 30 L 135 21 L 0 21 L 0 9 Z" stroke-opacity="0" stroke-miterlimit="10" stroke-width="2" opacity="0.294117647"/></g></g></g></g></g><g><g transform="translate(0,0) scale(1.5,0.3)"><g><g transform="scale(0.6666666666666666,3.3333333333333335)"><path fill="#1155cc" stroke="none" d="M 0 9 L 135 9 L 135 0 L 150 15 L 135 30 L 135 21 L 0 21 L 0 9 Z"/><path fill="none" stroke="#333333" d="M 0 9 M 0 9 L 135 9 L 135 0 L 150 15 L 135 30 L 135 21 L 0 21 L 0 9 Z" stroke-miterlimit="10" stroke-width="2"/></g></g></g></g></g></g></svg>