<svg version="1.1" xmlns="http://www.w3.org/2000/svg" xmlns:xlink="http://www.w3.org/1999/xlink" width="169.73333333333335" height="232.5"><style xmlns="http://www.w3.org/1999/xhtml"></style><defs><linearGradient id="FtxPtNkTXTdm" x1="0px" x2="0px" y1="100px" y2="-50px" gradientUnits="userSpaceOnUse"><stop offset="0" stop-color="#3c78d8"/><stop offset="1" stop-color="#FFFFFF"/></linearGradient><linearGradient id="gkmWbCkOHlRE" x1="0px" x2="0px" y1="100px" y2="-50px" gradientUnits="userSpaceOnUse"><stop offset="0" stop-color="#3c78d8"/><stop offset="1" stop-color="#FFFFFF"/></linearGradient></defs><g transform="translate(0,0)"><g><rect fill="#FFFFFF" stroke="none" x="0" y="0" width="169.73333333333335" height="232.5"/></g><g transform="translate(0,0) matrix(1,0,0,1,10,102.5)"><g><g transform="translate(0,0) scale(1.3,1.1)"><g><path fill="#FFFFFF" stroke="none" d="M 0 0 L 100 0 Q 100 0 100 0 L 100 100 Q 100 100 100 100 L 0 100 Q 0 100 0 100 L 0 0 Q 0 0 0 0 Z"/><g transform="scale(0.7692307692307692,0.9090909090909091)"><path fill="none" stroke="none" d="M 0 0 L 130 0 Q 130 0 130 0 L 130 110.00000000000001 Q 130 110.00000000000001 130 110.00000000000001 L 0 110.00000000000001 Q 0 110.00000000000001 0 110.00000000000001 L 0 0 Q 0 0 0 0 Z"/><path fill="none" stroke="#333333" d="M 0 0 M 0 0 L 130 0 Q 130 0 130 0 L 130 110.00000000000001 Q 130 110.00000000000001 130 110.00000000000001 L 0 110.00000000000001 Q 0 110.00000000000001 0 110.00000000000001 L 0 0 Q 0 0 0 0 Z" stroke-miterlimit="10" stroke-width="2"/></g></g></g></g></g><g transform="matrix(1,0,0,1,20,111)"><g transform="translate(64,0) matrix(1,0,0,1,0,0) translate(-64,0)"><g><rect fill="rgb(0,0,0)" stroke="none" x="0" y="0" width="112" height="14" fill-opacity="0"/></g></g><g transform="translate(64,0) matrix(1,0,0,1,0,0) translate(-64,0)"><g><rect fill="rgb(0,0,0)" stroke="none" x="0" y="0" width="112" height="14" fill-opacity="0"/></g></g><g transform="translate(64,0) matrix(1,0,0,1,0,0) translate(-64,0)"><g><rect fill="rgb(0,0,0)" stroke="none" x="32" y="0" width="48" height="14" fill-opacity="0"/></g></g><g transform="translate(64,0) matrix(1,0,0,1,0,0) translate(-64,0)"><g><rect fill="rgb(0,0,0)" stroke="none" x="32" y="0" width="48" height="14" fill-opacity="0"/></g><text fill="rgb(0, 0, 0)" stroke="none" font-family="Arial" font-size="12px" font-style="normal" font-weight="normal" text-decoration="" line-height="14px" x="32" y="12">MyDriver</text><rect fill="rgb(0, 0, 0)" stroke="none" x="32" y="13" width="48" height="1"/></g></g><g transform="translate(0,0) matrix(1,0,0,1,25,10)"><g><g transform="translate(0,0) scale(1,0.75)"><g><path fill="url(#FtxPtNkTXTdm)" stroke="none" d="M 0 0 L 100 0 Q 100 0 100 0 L 100 100 Q 100 100 100 100 L 0 100 Q 0 100 0 100 L 0 0 Q 0 0 0 0 Z"/><g transform="scale(1,1.3333333333333333)"><path fill="none" stroke="none" d="M 0 0 L 100 0 Q 100 0 100 0 L 100 75 Q 100 75 100 75 L 0 75 Q 0 75 0 75 L 0 0 Q 0 0 0 0 Z"/><path fill="url(#FtxPtNkTXTdm)" stroke="#333333" d="M 0 0 M 0 0 L 100 0 Q 100 0 100 0 L 100 75 Q 100 75 100 75 L 0 75 Q 0 75 0 75 L 0 0 Q 0 0 0 0 Z" stroke-miterlimit="10" stroke-width="2"/></g></g></g></g></g><g transform="matrix(1,0,0,1,35,20)"><g transform="translate(236,266) matrix(1,0,0,1,0,0) translate(-236,-266)"><g><rect fill="rgb(0,0,0)" stroke="none" x="0" y="0" width="81" height="56" fill-opacity="0"/></g></g><g transform="translate(236,266) matrix(1,0,0,1,0,0) translate(-236,-266)"><g><rect fill="rgb(0,0,0)" stroke="none" x="0" y="0" width="81" height="14" fill-opacity="0"/></g></g><g transform="translate(236,266) matrix(1,0,0,1,0,0) translate(-236,-266)"><g><rect fill="rgb(0,0,0)" stroke="none" x="17" y="0" width="47" height="14" fill-opacity="0"/></g></g><g transform="translate(236,266) matrix(1,0,0,1,0,0) translate(-236,-266)"><g><rect fill="rgb(0,0,0)" stroke="none" x="17" y="0" width="47" height="14" fill-opacity="0"/></g></g><g transform="translate(236,266) matrix(1,0,0,1,0,0) translate(-236,-266)"><g><rect fill="rgb(0,0,0)" stroke="none" x="17" y="0" width="47" height="14" fill-opacity="0"/></g><text fill="rgb(0, 0, 0)" stroke="none" font-family="Arial" font-size="12px" font-style="normal" font-weight="normal" text-decoration="" line-height="14px" x="17" y="12">DbDriver</text><rect fill="rgb(0, 0, 0)" stroke="none" x="17" y="13" width="47" height="1"/></g><g transform="translate(236,266) matrix(1,0,0,1,0,0) translate(-236,-266)"><g><rect fill="rgb(0,0,0)" stroke="none" x="0" y="14" width="81" height="14" fill-opacity="0"/></g></g><g transform="translate(236,266) matrix(1,0,0,1,0,0) translate(-236,-266)"><g><rect fill="rgb(0,0,0)" stroke="none" x="39" y="14" width="3" height="14" fill-opacity="0"/></g></g><g transform="translate(236,266) matrix(1,0,0,1,0,0) translate(-236,-266)"><g><rect fill="rgb(0,0,0)" stroke="none" x="39" y="14" width="3" height="14" fill-opacity="0"/></g></g><g transform="translate(236,266) matrix(1,0,0,1,0,0) translate(-236,-266)"><g><rect fill="rgb(0,0,0)" stroke="none" x="39" y="14" width="3" height="14" fill-opacity="0"/></g></g><g transform="translate(236,266) matrix(1,0,0,1,0,0) translate(-236,-266)"><g><rect fill="rgb(0,0,0)" stroke="none" x="0" y="28" width="81" height="14" fill-opacity="0"/></g></g><g transform="translate(236,266) matrix(1,0,0,1,0,0) translate(-236,-266)"><g><rect fill="rgb(0,0,0)" stroke="none" x="14" y="28" width="53" height="14" fill-opacity="0"/></g></g><g transform="translate(236,266) matrix(1,0,0,1,0,0) translate(-236,-266)"><g><rect fill="rgb(0,0,0)" stroke="none" x="14" y="28" width="53" height="14" fill-opacity="0"/></g><text fill="rgb(0, 0, 0)" stroke="none" font-family="Arial" font-size="12px" font-style="normal" font-weight="normal" text-decoration="" line-height="14px" x="14" y="40">Connect</text><text fill="rgb(0, 0, 0)" stroke="none" font-family="Arial" font-size="12px" font-style="normal" font-weight="normal" text-decoration="" line-height="14px" x="59" y="40">()</text></g><g transform="translate(236,266) matrix(1,0,0,1,0,0) translate(-236,-266)"><g><rect fill="rgb(0,0,0)" stroke="none" x="0" y="42" width="81" height="14" fill-opacity="0"/></g></g><g transform="translate(236,266) matrix(1,0,0,1,0,0) translate(-236,-266)"><g><rect fill="rgb(0,0,0)" stroke="none" x="20" y="42" width="41" height="14" fill-opacity="0"/></g></g><g transform="translate(236,266) matrix(1,0,0,1,0,0) translate(-236,-266)"><g><rect fill="rgb(0,0,0)" stroke="none" x="20" y="42" width="41" height="14" fill-opacity="0"/></g><text fill="rgb(0, 0, 0)" stroke="none" font-family="Arial" font-size="12px" font-style="normal" font-weight="normal" text-decoration="" line-height="14px" x="20" y="54">Query</text><text fill="rgb(0, 0, 0)" stroke="none" font-family="Arial" font-size="12px" font-style="normal" font-weight="normal" text-decoration="" line-height="14px" x="53" y="54">()</text></g></g><g transform="translate(0,0) matrix(1,0,0,1,25,130)"><g><g transform="translate(0,0) scale(1,0.75)"><g><path fill="url(#gkmWbCkOHlRE)" stroke="none" d="M 0 0 L 100 0 Q 100 0 100 0 L 100 100 Q 100 100 100 100 L 0 100 Q 0 100 0 100 L 0 0 Q 0 0 0 0 Z"/><g transform="scale(1,1.3333333333333333)"><path fill="none" stroke="none" d="M 0 0 L 100 0 Q 100 0 100 0 L 100 75 Q 100 75 100 75 L 0 75 Q 0 75 0 75 L 0 0 Q 0 0 0 0 Z"/><path fill="url(#gkmWbCkOHlRE)" stroke="#333333" d="M 0 0 M 0 0 L 100 0 Q 100 0 100 0 L 100 75 Q 100 75 100 75 L 0 75 Q 0 75 0 75 L 0 0 Q 0 0 0 0 Z" stroke-miterlimit="10" stroke-width="2"/></g></g></g></g></g><g transform="matrix(1,0,0,1,35,140)"><g transform="translate(236,266) matrix(1,0,0,1,0,0) translate(-236,-266)"><g><rect fill="rgb(0,0,0)" stroke="none" x="0" y="0" width="81" height="56" fill-opacity="0"/></g></g><g transform="translate(236,266) matrix(1,0,0,1,0,0) translate(-236,-266)"><g><rect fill="rgb(0,0,0)" stroke="none" x="0" y="0" width="81" height="14" fill-opacity="0"/></g></g><g transform="translate(236,266) matrix(1,0,0,1,0,0) translate(-236,-266)"><g><rect fill="rgb(0,0,0)" stroke="none" x="17" y="0" width="47" height="14" fill-opacity="0"/></g></g><g transform="translate(236,266) matrix(1,0,0,1,0,0) translate(-236,-266)"><g><rect fill="rgb(0,0,0)" stroke="none" x="17" y="0" width="47" height="14" fill-opacity="0"/></g></g><g transform="translate(236,266) matrix(1,0,0,1,0,0) translate(-236,-266)"><g><rect fill="rgb(0,0,0)" stroke="none" x="17" y="0" width="47" height="14" fill-opacity="0"/></g><text fill="rgb(0, 0, 0)" stroke="none" font-family="Arial" font-size="12px" font-style="normal" font-weight="normal" text-decoration="" line-height="14px" x="17" y="12">DbDriver</text><rect fill="rgb(0, 0, 0)" stroke="none" x="17" y="13" width="47" height="1"/></g><g transform="translate(236,266) matrix(1,0,0,1,0,0) translate(-236,-266)"><g><rect fill="rgb(0,0,0)" stroke="none" x="0" y="14" width="81" height="14" fill-opacity="0"/></g></g><g transform="translate(236,266) matrix(1,0,0,1,0,0) translate(-236,-266)"><g><rect fill="rgb(0,0,0)" stroke="none" x="39" y="14" width="3" height="14" fill-opacity="0"/></g></g><g transform="translate(236,266) matrix(1,0,0,1,0,0) translate(-236,-266)"><g><rect fill="rgb(0,0,0)" stroke="none" x="39" y="14" width="3" height="14" fill-opacity="0"/></g></g><g transform="translate(236,266) matrix(1,0,0,1,0,0) translate(-236,-266)"><g><rect fill="rgb(0,0,0)" stroke="none" x="39" y="14" width="3" height="14" fill-opacity="0"/></g></g><g transform="translate(236,266) matrix(1,0,0,1,0,0) translate(-236,-266)"><g><rect fill="rgb(0,0,0)" stroke="none" x="0" y="28" width="81" height="14" fill-opacity="0"/></g></g><g transform="translate(236,266) matrix(1,0,0,1,0,0) translate(-236,-266)"><g><rect fill="rgb(0,0,0)" stroke="none" x="14" y="28" width="53" height="14" fill-opacity="0"/></g></g><g transform="translate(236,266) matrix(1,0,0,1,0,0) translate(-236,-266)"><g><rect fill="rgb(0,0,0)" stroke="none" x="14" y="28" width="53" height="14" fill-opacity="0"/></g><text fill="rgb(0, 0, 0)" stroke="none" font-family="Arial" font-size="12px" font-style="normal" font-weight="normal" text-decoration="" line-height="14px" x="14" y="40">Connect</text><text fill="rgb(0, 0, 0)" stroke="none" font-family="Arial" font-size="12px" font-style="normal" font-weight="normal" text-decoration="" line-height="14px" x="59" y="40">()</text></g><g transform="translate(236,266) matrix(1,0,0,1,0,0) translate(-236,-266)"><g><rect fill="rgb(0,0,0)" stroke="none" x="0" y="42" width="81" height="14" fill-opacity="0"/></g></g><g transform="translate(236,266) matrix(1,0,0,1,0,0) translate(-236,-266)"><g><rect fill="rgb(0,0,0)" stroke="none" x="20" y="42" width="41" height="14" fill-opacity="0"/></g></g><g transform="translate(236,266) matrix(1,0,0,1,0,0) translate(-236,-266)"><g><rect fill="rgb(0,0,0)" stroke="none" x="20" y="42" width="41" height="14" fill-opacity="0"/></g><text fill="rgb(0, 0, 0)" stroke="none" font-family="Arial" font-size="12px" font-style="normal" font-weight="normal" text-decoration="" line-height="14px" x="20" y="54">Query</text><text fill="rgb(0, 0, 0)" stroke="none" font-family="Arial" font-size="12px" font-style="normal" font-weight="normal" text-decoration="" line-height="14px" x="53" y="54">()</text></g></g></g></svg>