<svg version="1.1" xmlns="http://www.w3.org/2000/svg" xmlns:xlink="http://www.w3.org/1999/xlink" width="636" height="246"><style xmlns="http://www.w3.org/1999/xhtml"></style><defs/><g transform="translate(0,0)"><g><rect fill="#FFFFFF" stroke="none" x="0" y="0" width="636" height="246"/></g><g transform="translate(0,0) matrix(1,0,0,1,10,115)"><g transform="translate(4,4) scale(1.0017094017094017,1.0133333333333334)"><g><g transform="translate(0,0) scale(5.85,0.75)"><g><path fill="#000000" stroke="none" d="M 0 0 L 100 0 Q 100 0 100 0 L 100 100 Q 100 100 100 100 L 0 100 Q 0 100 0 100 L 0 0 Q 0 0 0 0 Z" opacity="0.294117647"/><g transform="scale(0.17094017094017094,1.3333333333333333)"><path fill="none" stroke="none" d="M 0 0 L 585 0 Q 585 0 585 0 L 585 75 Q 585 75 585 75 L 0 75 Q 0 75 0 75 L 0 0 Q 0 0 0 0 Z"/><path fill="none" stroke="rgb(0,0,0)" d="M 0 0 M 0 0 L 585 0 Q 585 0 585 0 L 585 75 Q 585 75 585 75 L 0 75 Q 0 75 0 75 L 0 0 Q 0 0 0 0 Z" stroke-opacity="0" stroke-miterlimit="10" stroke-width="2" opacity="0.294117647"/></g></g></g></g></g><g><g transform="translate(0,0) scale(5.85,0.75)"><g><path fill="#d9ead3" stroke="none" d="M 0 0 L 100 0 Q 100 0 100 0 L 100 100 Q 100 100 100 100 L 0 100 Q 0 100 0 100 L 0 0 Q 0 0 0 0 Z"/><g transform="scale(0.17094017094017094,1.3333333333333333)"><path fill="none" stroke="none" d="M 0 0 L 585 0 Q 585 0 585 0 L 585 75 Q 585 75 585 75 L 0 75 Q 0 75 0 75 L 0 0 Q 0 0 0 0 Z"/><path fill="none" stroke="#333333" d="M 0 0 M 0 0 L 585 0 Q 585 0 585 0 L 585 75 Q 585 75 585 75 L 0 75 Q 0 75 0 75 L 0 0 Q 0 0 0 0 Z" stroke-miterlimit="10" stroke-width="2"/></g></g></g></g></g><g transform="matrix(1,0,0,1,30,146)"><g><g><rect fill="rgb(0,0,0)" stroke="none" x="0" y="0" width="547" height="14" fill-opacity="0"/></g></g><g><g><rect fill="rgb(0,0,0)" stroke="none" x="0" y="0" width="547" height="14" fill-opacity="0"/></g></g><g><g><rect fill="rgb(0,0,0)" stroke="none" x="253.953125" y="0" width="39" height="14" fill-opacity="0"/></g></g><g><g><rect fill="rgb(0,0,0)" stroke="none" x="253.953125" y="0" width="39" height="14" fill-opacity="0"/></g><text fill="rgb(0, 0, 0)" stroke="none" font-family="Arial" font-size="12px" font-style="normal" font-weight="normal" text-decoration="" line-height="14px" x="253.953125" y="12">Normal</text></g></g><g transform="translate(0,0) matrix(1,0,0,1,595,115)"><g transform="translate(4,4) scale(1.0666666666666667,1.0133333333333334)"><g><g transform="translate(0,0) scale(0.15,0.75)"><g><path fill="#000000" stroke="none" d="M 0 0 L 100 0 Q 100 0 100 0 L 100 100 Q 100 100 100 100 L 0 100 Q 0 100 0 100 L 0 0 Q 0 0 0 0 Z" opacity="0.294117647"/><g transform="scale(6.666666666666667,1.3333333333333333)"><path fill="none" stroke="none" d="M 0 0 L 15 0 Q 15 0 15 0 L 15 75 Q 15 75 15 75 L 0 75 Q 0 75 0 75 L 0 0 Q 0 0 0 0 Z"/><path fill="none" stroke="rgb(0,0,0)" d="M 0 0 M 0 0 L 15 0 Q 15 0 15 0 L 15 75 Q 15 75 15 75 L 0 75 Q 0 75 0 75 L 0 0 Q 0 0 0 0 Z" stroke-opacity="0" stroke-miterlimit="10" stroke-width="2" opacity="0.294117647"/></g></g></g></g></g><g><g transform="translate(0,0) scale(0.15,0.75)"><g><path fill="#fce5cd" stroke="none" d="M 0 0 L 100 0 Q 100 0 100 0 L 100 100 Q 100 100 100 100 L 0 100 Q 0 100 0 100 L 0 0 Q 0 0 0 0 Z"/><g transform="scale(6.666666666666667,1.3333333333333333)"><path fill="none" stroke="none" d="M 0 0 L 15 0 Q 15 0 15 0 L 15 75 Q 15 75 15 75 L 0 75 Q 0 75 0 75 L 0 0 Q 0 0 0 0 Z"/><path fill="none" stroke="#333333" d="M 0 0 M 0 0 L 15 0 Q 15 0 15 0 L 15 75 Q 15 75 15 75 L 0 75 Q 0 75 0 75 L 0 0 Q 0 0 0 0 Z" stroke-miterlimit="10" stroke-width="2"/></g></g></g></g></g><g transform="translate(0,0) matrix(1,0,0,1,10,40)"><g><g transform="translate(0,0) scale(1.5,0.75)"><g><path fill="#d9ead3" stroke="none" d="M 0 0 L 100 0 Q 100 0 100 0 L 100 100 Q 100 100 100 100 L 0 100 Q 0 100 0 100 L 0 0 Q 0 0 0 0 Z"/><g transform="scale(0.6666666666666666,1.3333333333333333)"><path fill="none" stroke="none" d="M 0 0 L 150 0 Q 150 0 150 0 L 150 75 Q 150 75 150 75 L 0 75 Q 0 75 0 75 L 0 0 Q 0 0 0 0 Z"/><path fill="none" stroke="#333333" d="M 0 0 M 0 0 L 150 0 Q 150 0 150 0 L 150 75 Q 150 75 150 75 L 0 75 Q 0 75 0 75 L 0 0 Q 0 0 0 0 Z" stroke-miterlimit="10" stroke-width="2"/></g></g></g></g></g><g transform="matrix(1,0,0,1,20,71)"><g><g><rect fill="rgb(0,0,0)" stroke="none" x="0" y="0" width="131" height="14" fill-opacity="0"/></g></g><g><g><rect fill="rgb(0,0,0)" stroke="none" x="0" y="0" width="131" height="14" fill-opacity="0"/></g></g><g><g><rect fill="rgb(0,0,0)" stroke="none" x="106.984375" y="0" width="24" height="14" fill-opacity="0"/></g></g><g><g><rect fill="rgb(0,0,0)" stroke="none" x="106.984375" y="0" width="24" height="14" fill-opacity="0"/></g><text fill="rgb(0, 0, 0)" stroke="none" font-family="Arial" font-size="12px" font-style="normal" font-weight="normal" text-decoration="" line-height="14px" x="107" y="12">25</text><text fill="rgb(0, 0, 0)" stroke="none" font-family="Arial" font-size="12px" font-style="normal" font-weight="normal" text-decoration="" line-height="14px" x="120" y="12">%</text></g></g><g transform="translate(0,0) matrix(1,0,0,1,160,40)"><g><g transform="translate(0,0) scale(1.5,0.75)"><g><path fill="#d9ead3" stroke="none" d="M 0 0 L 100 0 Q 100 0 100 0 L 100 100 Q 100 100 100 100 L 0 100 Q 0 100 0 100 L 0 0 Q 0 0 0 0 Z"/><g transform="scale(0.6666666666666666,1.3333333333333333)"><path fill="none" stroke="none" d="M 0 0 L 150 0 Q 150 0 150 0 L 150 75 Q 150 75 150 75 L 0 75 Q 0 75 0 75 L 0 0 Q 0 0 0 0 Z"/><path fill="none" stroke="#333333" d="M 0 0 M 0 0 L 150 0 Q 150 0 150 0 L 150 75 Q 150 75 150 75 L 0 75 Q 0 75 0 75 L 0 0 Q 0 0 0 0 Z" stroke-miterlimit="10" stroke-width="2"/></g></g></g></g></g><g transform="matrix(1,0,0,1,170,71)"><g><g><rect fill="rgb(0,0,0)" stroke="none" x="0" y="0" width="131" height="14" fill-opacity="0"/></g></g><g><g><rect fill="rgb(0,0,0)" stroke="none" x="0" y="0" width="131" height="14" fill-opacity="0"/></g></g><g><g><rect fill="rgb(0,0,0)" stroke="none" x="106.984375" y="0" width="24" height="14" fill-opacity="0"/></g></g><g><g><rect fill="rgb(0,0,0)" stroke="none" x="106.984375" y="0" width="24" height="14" fill-opacity="0"/></g><text fill="rgb(0, 0, 0)" stroke="none" font-family="Arial" font-size="12px" font-style="normal" font-weight="normal" text-decoration="" line-height="14px" x="107" y="12">50</text><text fill="rgb(0, 0, 0)" stroke="none" font-family="Arial" font-size="12px" font-style="normal" font-weight="normal" text-decoration="" line-height="14px" x="120" y="12">%</text></g></g><g transform="translate(0,0) matrix(1,0,0,1,310,40)"><g><g transform="translate(0,0) scale(1.5,0.75)"><g><path fill="#d9ead3" stroke="none" d="M 0 0 L 100 0 Q 100 0 100 0 L 100 100 Q 100 100 100 100 L 0 100 Q 0 100 0 100 L 0 0 Q 0 0 0 0 Z"/><g transform="scale(0.6666666666666666,1.3333333333333333)"><path fill="none" stroke="none" d="M 0 0 L 150 0 Q 150 0 150 0 L 150 75 Q 150 75 150 75 L 0 75 Q 0 75 0 75 L 0 0 Q 0 0 0 0 Z"/><path fill="none" stroke="#333333" d="M 0 0 M 0 0 L 150 0 Q 150 0 150 0 L 150 75 Q 150 75 150 75 L 0 75 Q 0 75 0 75 L 0 0 Q 0 0 0 0 Z" stroke-miterlimit="10" stroke-width="2"/></g></g></g></g></g><g transform="matrix(1,0,0,1,320,71)"><g><g><rect fill="rgb(0,0,0)" stroke="none" x="0" y="0" width="131" height="14" fill-opacity="0"/></g></g><g><g><rect fill="rgb(0,0,0)" stroke="none" x="0" y="0" width="131" height="14" fill-opacity="0"/></g></g><g><g><rect fill="rgb(0,0,0)" stroke="none" x="106.984375" y="0" width="24" height="14" fill-opacity="0"/></g></g><g><g><rect fill="rgb(0,0,0)" stroke="none" x="106.984375" y="0" width="24" height="14" fill-opacity="0"/></g><text fill="rgb(0, 0, 0)" stroke="none" font-family="Arial" font-size="12px" font-style="normal" font-weight="normal" text-decoration="" line-height="14px" x="107" y="12">75</text><text fill="rgb(0, 0, 0)" stroke="none" font-family="Arial" font-size="12px" font-style="normal" font-weight="normal" text-decoration="" line-height="14px" x="120" y="12">%</text></g></g><g transform="translate(0,0) matrix(1,0,0,1,460,40)"><g><g transform="translate(0,0) scale(1.5,0.75)"><g><path fill="#fce5cd" stroke="none" d="M 0 0 L 100 0 Q 100 0 100 0 L 100 100 Q 100 100 100 100 L 0 100 Q 0 100 0 100 L 0 0 Q 0 0 0 0 Z"/><g transform="scale(0.6666666666666666,1.3333333333333333)"><path fill="none" stroke="none" d="M 0 0 L 150 0 Q 150 0 150 0 L 150 75 Q 150 75 150 75 L 0 75 Q 0 75 0 75 L 0 0 Q 0 0 0 0 Z"/><path fill="none" stroke="#333333" d="M 0 0 M 0 0 L 150 0 Q 150 0 150 0 L 150 75 Q 150 75 150 75 L 0 75 Q 0 75 0 75 L 0 0 Q 0 0 0 0 Z" stroke-miterlimit="10" stroke-width="2"/></g></g></g></g></g><g transform="matrix(1,0,0,1,470,71)"><g><g><rect fill="rgb(0,0,0)" stroke="none" x="0" y="0" width="131" height="14" fill-opacity="0"/></g></g><g><g><rect fill="rgb(0,0,0)" stroke="none" x="0" y="0" width="131" height="14" fill-opacity="0"/></g></g><g><g><rect fill="rgb(0,0,0)" stroke="none" x="100.3125" y="0" width="31" height="14" fill-opacity="0"/></g></g><g><g><rect fill="rgb(0,0,0)" stroke="none" x="100.3125" y="0" width="31" height="14" fill-opacity="0"/></g><text fill="rgb(0, 0, 0)" stroke="none" font-family="Arial" font-size="12px" font-style="normal" font-weight="normal" text-decoration="" line-height="14px" x="100" y="12">100</text><text fill="rgb(0, 0, 0)" stroke="none" font-family="Arial" font-size="12px" font-style="normal" font-weight="normal" text-decoration="" line-height="14px" x="120" y="12">%</text></g></g><g transform="matrix(1,0,0,1,191,10)"><g><g><rect fill="rgb(0,0,0)" stroke="none" x="0" y="0" width="240" height="16" fill-opacity="0"/></g></g><g><g><rect fill="rgb(0,0,0)" stroke="none" x="0" y="0" width="240" height="16" fill-opacity="0"/></g></g><g><g><rect fill="rgb(0,0,0)" stroke="none" x="67.484375" y="0" width="106" height="16" fill-opacity="0"/></g></g><g><g><rect fill="rgb(0,0,0)" stroke="none" x="67.484375" y="0" width="106" height="16" fill-opacity="0"/></g><text fill="rgb(0, 0, 0)" stroke="none" font-family="Arial" font-size="14px" font-style="normal" font-weight="normal" text-decoration="" line-height="16.5px" x="67" y="13">System</text><text fill="rgb(0, 0, 0)" stroke="none" font-family="Arial" font-size="14px" font-style="normal" font-weight="normal" text-decoration="" line-height="16.5px" x="118" y="13">Capacity</text></g></g><g transform="matrix(1,0,0,1,191,210)"><g><g><rect fill="rgb(0,0,0)" stroke="none" x="0" y="0" width="240" height="16" fill-opacity="0"/></g></g><g><g><rect fill="rgb(0,0,0)" stroke="none" x="0" y="0" width="240" height="16" fill-opacity="0"/></g></g><g><g><rect fill="rgb(0,0,0)" stroke="none" x="56.578125" y="0" width="126" height="16" fill-opacity="0"/></g></g><g><g><rect fill="rgb(0,0,0)" stroke="none" x="56.578125" y="0" width="126" height="16" fill-opacity="0"/></g><text fill="rgb(0, 0, 0)" stroke="none" font-family="Arial" font-size="14px" font-style="normal" font-weight="normal" text-decoration="" line-height="16.5px" x="57" y="13">Database</text><text fill="rgb(0, 0, 0)" stroke="none" font-family="Arial" font-size="14px" font-style="normal" font-weight="normal" text-decoration="" line-height="16.5px" x="120" y="13">Scalability</text></g></g></g></svg>