<svg version="1.1" xmlns="http://www.w3.org/2000/svg" xmlns:xlink="http://www.w3.org/1999/xlink" width="650" height="246"><style xmlns="http://www.w3.org/1999/xhtml"></style><defs/><g transform="translate(0,0)"><g><rect fill="#FFFFFF" stroke="none" x="0" y="0" width="650" height="246"/></g><g transform="translate(0,0) matrix(1,0,0,1,10,115)"><g transform="translate(4,4) scale(1.0133333333333334,1.0133333333333334)"><g><g transform="translate(0,0) scale(0.75,0.75)"><g><path fill="#000000" stroke="none" d="M 0 0 L 100 0 Q 100 0 100 0 L 100 100 Q 100 100 100 100 L 0 100 Q 0 100 0 100 L 0 0 Q 0 0 0 0 Z" opacity="0.294117647"/><g transform="scale(1.3333333333333333,1.3333333333333333)"><path fill="none" stroke="none" d="M 0 0 L 75 0 Q 75 0 75 0 L 75 75 Q 75 75 75 75 L 0 75 Q 0 75 0 75 L 0 0 Q 0 0 0 0 Z"/><path fill="none" stroke="rgb(0,0,0)" d="M 0 0 M 0 0 L 75 0 Q 75 0 75 0 L 75 75 Q 75 75 75 75 L 0 75 Q 0 75 0 75 L 0 0 Q 0 0 0 0 Z" stroke-opacity="0" stroke-miterlimit="10" stroke-width="2" opacity="0.294117647"/></g></g></g></g></g><g><g transform="translate(0,0) scale(0.75,0.75)"><g><path fill="#d9d9d9" stroke="none" d="M 0 0 L 100 0 Q 100 0 100 0 L 100 100 Q 100 100 100 100 L 0 100 Q 0 100 0 100 L 0 0 Q 0 0 0 0 Z"/><g transform="scale(1.3333333333333333,1.3333333333333333)"><path fill="none" stroke="none" d="M 0 0 L 75 0 Q 75 0 75 0 L 75 75 Q 75 75 75 75 L 0 75 Q 0 75 0 75 L 0 0 Q 0 0 0 0 Z"/><path fill="none" stroke="#333333" d="M 0 0 M 0 0 L 75 0 Q 75 0 75 0 L 75 75 Q 75 75 75 75 L 0 75 Q 0 75 0 75 L 0 0 Q 0 0 0 0 Z" stroke-miterlimit="10" stroke-width="2"/></g></g></g></g></g><g transform="matrix(1,0,0,1,20,146)"><g><g><rect fill="rgb(0,0,0)" stroke="none" x="0" y="0" width="57" height="14" fill-opacity="0"/></g></g><g><g><rect fill="rgb(0,0,0)" stroke="none" x="0" y="0" width="57" height="14" fill-opacity="0"/></g></g><g><g><rect fill="rgb(0,0,0)" stroke="none" x="18.828125" y="0" width="19" height="14" fill-opacity="0"/></g></g><g><g><rect fill="rgb(0,0,0)" stroke="none" x="18.828125" y="0" width="19" height="14" fill-opacity="0"/></g><text fill="rgb(0, 0, 0)" stroke="none" font-family="Arial" font-size="12px" font-style="normal" font-weight="normal" text-decoration="" line-height="14px" x="18.828125" y="12">Idle</text></g></g><g transform="translate(0,0) matrix(1,0,0,1,85,115)"><g transform="translate(4,4) scale(1.003076923076923,1.0133333333333334)"><g><g transform="translate(0,0) scale(3.25,0.75)"><g><path fill="#000000" stroke="none" d="M 0 0 L 100 0 Q 100 0 100 0 L 100 100 Q 100 100 100 100 L 0 100 Q 0 100 0 100 L 0 0 Q 0 0 0 0 Z" opacity="0.294117647"/><g transform="scale(0.3076923076923077,1.3333333333333333)"><path fill="none" stroke="none" d="M 0 0 L 325 0 Q 325 0 325 0 L 325 75 Q 325 75 325 75 L 0 75 Q 0 75 0 75 L 0 0 Q 0 0 0 0 Z"/><path fill="none" stroke="rgb(0,0,0)" d="M 0 0 M 0 0 L 325 0 Q 325 0 325 0 L 325 75 Q 325 75 325 75 L 0 75 Q 0 75 0 75 L 0 0 Q 0 0 0 0 Z" stroke-opacity="0" stroke-miterlimit="10" stroke-width="2" opacity="0.294117647"/></g></g></g></g></g><g><g transform="translate(0,0) scale(3.25,0.75)"><g><path fill="#d9ead3" stroke="none" d="M 0 0 L 100 0 Q 100 0 100 0 L 100 100 Q 100 100 100 100 L 0 100 Q 0 100 0 100 L 0 0 Q 0 0 0 0 Z"/><g transform="scale(0.3076923076923077,1.3333333333333333)"><path fill="none" stroke="none" d="M 0 0 L 325 0 Q 325 0 325 0 L 325 75 Q 325 75 325 75 L 0 75 Q 0 75 0 75 L 0 0 Q 0 0 0 0 Z"/><path fill="none" stroke="#333333" d="M 0 0 M 0 0 L 325 0 Q 325 0 325 0 L 325 75 Q 325 75 325 75 L 0 75 Q 0 75 0 75 L 0 0 Q 0 0 0 0 Z" stroke-miterlimit="10" stroke-width="2"/></g></g></g></g></g><g transform="matrix(1,0,0,1,100,146)"><g><g><rect fill="rgb(0,0,0)" stroke="none" x="0" y="0" width="297" height="14" fill-opacity="0"/></g></g><g><g><rect fill="rgb(0,0,0)" stroke="none" x="0" y="0" width="297" height="14" fill-opacity="0"/></g></g><g><g><rect fill="rgb(0,0,0)" stroke="none" x="129.15625" y="0" width="39" height="14" fill-opacity="0"/></g></g><g><g><rect fill="rgb(0,0,0)" stroke="none" x="129.15625" y="0" width="39" height="14" fill-opacity="0"/></g><text fill="rgb(0, 0, 0)" stroke="none" font-family="Arial" font-size="12px" font-style="normal" font-weight="normal" text-decoration="" line-height="14px" x="129.15625" y="12">Normal</text></g></g><g transform="translate(0,0) matrix(1,0,0,1,410,115)"><g transform="translate(4,4) scale(1.02,1.0133333333333334)"><g><g transform="translate(0,0) scale(0.5,0.75)"><g><path fill="#000000" stroke="none" d="M 0 0 L 100 0 Q 100 0 100 0 L 100 100 Q 100 100 100 100 L 0 100 Q 0 100 0 100 L 0 0 Q 0 0 0 0 Z" opacity="0.294117647"/><g transform="scale(2,1.3333333333333333)"><path fill="none" stroke="none" d="M 0 0 L 50 0 Q 50 0 50 0 L 50 75 Q 50 75 50 75 L 0 75 Q 0 75 0 75 L 0 0 Q 0 0 0 0 Z"/><path fill="none" stroke="rgb(0,0,0)" d="M 0 0 M 0 0 L 50 0 Q 50 0 50 0 L 50 75 Q 50 75 50 75 L 0 75 Q 0 75 0 75 L 0 0 Q 0 0 0 0 Z" stroke-opacity="0" stroke-miterlimit="10" stroke-width="2" opacity="0.294117647"/></g></g></g></g></g><g><g transform="translate(0,0) scale(0.5,0.75)"><g><path fill="#fce5cd" stroke="none" d="M 0 0 L 100 0 Q 100 0 100 0 L 100 100 Q 100 100 100 100 L 0 100 Q 0 100 0 100 L 0 0 Q 0 0 0 0 Z"/><g transform="scale(2,1.3333333333333333)"><path fill="none" stroke="none" d="M 0 0 L 50 0 Q 50 0 50 0 L 50 75 Q 50 75 50 75 L 0 75 Q 0 75 0 75 L 0 0 Q 0 0 0 0 Z"/><path fill="none" stroke="#333333" d="M 0 0 M 0 0 L 50 0 Q 50 0 50 0 L 50 75 Q 50 75 50 75 L 0 75 Q 0 75 0 75 L 0 0 Q 0 0 0 0 Z" stroke-miterlimit="10" stroke-width="2"/></g></g></g></g></g><g transform="matrix(1,0,0,1,419,146)"><g><g><rect fill="rgb(0,0,0)" stroke="none" x="0" y="0" width="33" height="14" fill-opacity="0"/></g></g><g><g><rect fill="rgb(0,0,0)" stroke="none" x="0" y="0" width="33" height="14" fill-opacity="0"/></g></g><g><g><rect fill="rgb(0,0,0)" stroke="none" x="5.171875" y="0" width="23" height="14" fill-opacity="0"/></g></g><g><g><rect fill="rgb(0,0,0)" stroke="none" x="5.171875" y="0" width="23" height="14" fill-opacity="0"/></g><text fill="rgb(0, 0, 0)" stroke="none" font-family="Arial" font-size="12px" font-style="normal" font-weight="normal" text-decoration="" line-height="14px" x="5.171875" y="12">Max</text></g></g><g transform="translate(0,0) matrix(1,0,0,1,460,115)"><g transform="translate(4,4) scale(1.0058823529411764,1.0133333333333334)"><g><g transform="translate(0,0) scale(1.7,0.75)"><g><path fill="rgb(0,0,0)" stroke="none" d="M 0 0 L 100 0 Q 100 0 100 0 L 100 100 Q 100 100 100 100 L 0 100 Q 0 100 0 100 L 0 0 Q 0 0 0 0 Z" fill-opacity="0" opacity="0.294117647"/><g transform="scale(0.5882352941176471,1.3333333333333333)"><path fill="none" stroke="rbga(0,0,0,0)" d="M 0 0 L 170 0 Q 170 0 170 0 L 170 75 Q 170 75 170 75 L 0 75 Q 0 75 0 75 L 0 0 Q 0 0 0 0 Z" stroke-miterlimit="10" stroke-width="2" opacity="0.294117647"/></g></g></g></g></g><g><g transform="translate(0,0) scale(1.7,0.75)"><g><path fill="rgb(0,0,0)" stroke="none" d="M 0 0 L 100 0 Q 100 0 100 0 L 100 100 Q 100 100 100 100 L 0 100 Q 0 100 0 100 L 0 0 Q 0 0 0 0 Z" fill-opacity="0"/><g transform="scale(0.5882352941176471,1.3333333333333333)"><path fill="none" stroke="rbga(0,0,0,0)" d="M 0 0 L 170 0 Q 170 0 170 0 L 170 75 Q 170 75 170 75 L 0 75 Q 0 75 0 75 L 0 0 Q 0 0 0 0 Z" stroke-miterlimit="10" stroke-width="2"/></g></g></g></g></g><g transform="translate(0,0) matrix(1,0,0,1,460,115)"><g transform="translate(4,4) scale(1.006896551724138,1.0133333333333334)"><g><g transform="translate(0,0) scale(1.9333333333333333,1.5) translate(0,-1)"><g><g transform="scale(0.5172413793103449,0.6666666666666666)"><path fill="#000000" stroke="rgb(0,0,0)" d="M 145 76.5 L 0 76.5 L 0 1.5 L 145 1.5" opacity="0.294117647" stroke-opacity="0" stroke-miterlimit="10" stroke-width="2"/></g></g></g></g></g><g><g transform="translate(0,0) scale(1.9333333333333333,1.5) translate(0,-1)"><g><g transform="scale(0.5172413793103449,0.6666666666666666)"><path fill="#ea9999" stroke="#000000" d="M 145 76.5 L 0 76.5 L 0 1.5 L 145 1.5" stroke-miterlimit="10" stroke-width="2"/></g></g></g></g></g><g transform="matrix(1,0,0,1,470,146)"><g><g><rect fill="rgb(0,0,0)" stroke="none" x="0" y="0" width="134" height="20" fill-opacity="0"/></g></g><g><g><rect fill="rgb(0,0,0)" stroke="none" x="0" y="0" width="134" height="14" fill-opacity="0"/></g></g><g><g><rect fill="rgb(0,0,0)" stroke="none" x="36.984375" y="0" width="60" height="14" fill-opacity="0"/></g><text fill="rgb(0, 0, 0)" stroke="none" font-family="Arial" font-size="12px" font-style="normal" font-weight="normal" text-decoration="" line-height="14px" x="36.984375" y="12">Retrograde</text></g></g><g transform="translate(0,0) matrix(1,0,0,1,605,115)"><g transform="translate(4,4) scale(1.04,1.0133333333333334)"><g><g transform="translate(0,0) scale(0.9615384615384616,1.4423076923076923)"><g><g transform="scale(1.04,0.6933333333333334)"><path fill="#000000" stroke="rgb(0,0,0)" d="M 0 75 L 5.096153846153846 75 L 24.03846153846154 37.5 L 5.096153846153846 0 L 0 0" opacity="0.294117647" stroke-opacity="0" stroke-miterlimit="3" stroke-width="2"/></g></g></g></g></g><g><g transform="translate(0,0) scale(0.9615384615384616,1.4423076923076923)"><g><g transform="scale(1.04,0.6933333333333334)"><path fill="#ea9999" stroke="#000000" d="M 0 75 L 5.096153846153846 75 L 24.03846153846154 37.5 L 5.096153846153846 0 L 0 0" stroke-miterlimit="3" stroke-width="2"/></g></g></g></g></g><g transform="translate(0,0) matrix(1,0,0,1,10,40)"><g><g transform="translate(0,0) scale(1.5,0.75)"><g><path fill="#d9ead3" stroke="none" d="M 0 0 L 100 0 Q 100 0 100 0 L 100 100 Q 100 100 100 100 L 0 100 Q 0 100 0 100 L 0 0 Q 0 0 0 0 Z"/><g transform="scale(0.6666666666666666,1.3333333333333333)"><path fill="none" stroke="none" d="M 0 0 L 150 0 Q 150 0 150 0 L 150 75 Q 150 75 150 75 L 0 75 Q 0 75 0 75 L 0 0 Q 0 0 0 0 Z"/><path fill="none" stroke="#333333" d="M 0 0 M 0 0 L 150 0 Q 150 0 150 0 L 150 75 Q 150 75 150 75 L 0 75 Q 0 75 0 75 L 0 0 Q 0 0 0 0 Z" stroke-miterlimit="10" stroke-width="2"/></g></g></g></g></g><g transform="matrix(1,0,0,1,20,71)"><g><g><rect fill="rgb(0,0,0)" stroke="none" x="0" y="0" width="131" height="14" fill-opacity="0"/></g></g><g><g><rect fill="rgb(0,0,0)" stroke="none" x="0" y="0" width="131" height="14" fill-opacity="0"/></g></g><g><g><rect fill="rgb(0,0,0)" stroke="none" x="106.984375" y="0" width="24" height="14" fill-opacity="0"/></g></g><g><g><rect fill="rgb(0,0,0)" stroke="none" x="106.984375" y="0" width="24" height="14" fill-opacity="0"/></g><text fill="rgb(0, 0, 0)" stroke="none" font-family="Arial" font-size="12px" font-style="normal" font-weight="normal" text-decoration="" line-height="14px" x="107" y="12">25</text><text fill="rgb(0, 0, 0)" stroke="none" font-family="Arial" font-size="12px" font-style="normal" font-weight="normal" text-decoration="" line-height="14px" x="120" y="12">%</text></g></g><g transform="translate(0,0) matrix(1,0,0,1,160,40)"><g><g transform="translate(0,0) scale(1.5,0.75)"><g><path fill="#d9ead3" stroke="none" d="M 0 0 L 100 0 Q 100 0 100 0 L 100 100 Q 100 100 100 100 L 0 100 Q 0 100 0 100 L 0 0 Q 0 0 0 0 Z"/><g transform="scale(0.6666666666666666,1.3333333333333333)"><path fill="none" stroke="none" d="M 0 0 L 150 0 Q 150 0 150 0 L 150 75 Q 150 75 150 75 L 0 75 Q 0 75 0 75 L 0 0 Q 0 0 0 0 Z"/><path fill="none" stroke="#333333" d="M 0 0 M 0 0 L 150 0 Q 150 0 150 0 L 150 75 Q 150 75 150 75 L 0 75 Q 0 75 0 75 L 0 0 Q 0 0 0 0 Z" stroke-miterlimit="10" stroke-width="2"/></g></g></g></g></g><g transform="matrix(1,0,0,1,170,71)"><g><g><rect fill="rgb(0,0,0)" stroke="none" x="0" y="0" width="131" height="14" fill-opacity="0"/></g></g><g><g><rect fill="rgb(0,0,0)" stroke="none" x="0" y="0" width="131" height="14" fill-opacity="0"/></g></g><g><g><rect fill="rgb(0,0,0)" stroke="none" x="106.984375" y="0" width="24" height="14" fill-opacity="0"/></g></g><g><g><rect fill="rgb(0,0,0)" stroke="none" x="106.984375" y="0" width="24" height="14" fill-opacity="0"/></g><text fill="rgb(0, 0, 0)" stroke="none" font-family="Arial" font-size="12px" font-style="normal" font-weight="normal" text-decoration="" line-height="14px" x="107" y="12">50</text><text fill="rgb(0, 0, 0)" stroke="none" font-family="Arial" font-size="12px" font-style="normal" font-weight="normal" text-decoration="" line-height="14px" x="120" y="12">%</text></g></g><g transform="translate(0,0) matrix(1,0,0,1,310,40)"><g><g transform="translate(0,0) scale(1.5,0.75)"><g><path fill="#d9ead3" stroke="none" d="M 0 0 L 100 0 Q 100 0 100 0 L 100 100 Q 100 100 100 100 L 0 100 Q 0 100 0 100 L 0 0 Q 0 0 0 0 Z"/><g transform="scale(0.6666666666666666,1.3333333333333333)"><path fill="none" stroke="none" d="M 0 0 L 150 0 Q 150 0 150 0 L 150 75 Q 150 75 150 75 L 0 75 Q 0 75 0 75 L 0 0 Q 0 0 0 0 Z"/><path fill="none" stroke="#333333" d="M 0 0 M 0 0 L 150 0 Q 150 0 150 0 L 150 75 Q 150 75 150 75 L 0 75 Q 0 75 0 75 L 0 0 Q 0 0 0 0 Z" stroke-miterlimit="10" stroke-width="2"/></g></g></g></g></g><g transform="matrix(1,0,0,1,320,71)"><g><g><rect fill="rgb(0,0,0)" stroke="none" x="0" y="0" width="131" height="14" fill-opacity="0"/></g></g><g><g><rect fill="rgb(0,0,0)" stroke="none" x="0" y="0" width="131" height="14" fill-opacity="0"/></g></g><g><g><rect fill="rgb(0,0,0)" stroke="none" x="106.984375" y="0" width="24" height="14" fill-opacity="0"/></g></g><g><g><rect fill="rgb(0,0,0)" stroke="none" x="106.984375" y="0" width="24" height="14" fill-opacity="0"/></g><text fill="rgb(0, 0, 0)" stroke="none" font-family="Arial" font-size="12px" font-style="normal" font-weight="normal" text-decoration="" line-height="14px" x="107" y="12">75</text><text fill="rgb(0, 0, 0)" stroke="none" font-family="Arial" font-size="12px" font-style="normal" font-weight="normal" text-decoration="" line-height="14px" x="120" y="12">%</text></g></g><g transform="translate(0,0) matrix(1,0,0,1,460,40)"><g><g transform="translate(0,0) scale(1.5,0.75)"><g><path fill="#fce5cd" stroke="none" d="M 0 0 L 100 0 Q 100 0 100 0 L 100 100 Q 100 100 100 100 L 0 100 Q 0 100 0 100 L 0 0 Q 0 0 0 0 Z"/><g transform="scale(0.6666666666666666,1.3333333333333333)"><path fill="none" stroke="none" d="M 0 0 L 150 0 Q 150 0 150 0 L 150 75 Q 150 75 150 75 L 0 75 Q 0 75 0 75 L 0 0 Q 0 0 0 0 Z"/><path fill="none" stroke="#333333" d="M 0 0 M 0 0 L 150 0 Q 150 0 150 0 L 150 75 Q 150 75 150 75 L 0 75 Q 0 75 0 75 L 0 0 Q 0 0 0 0 Z" stroke-miterlimit="10" stroke-width="2"/></g></g></g></g></g><g transform="matrix(1,0,0,1,470,71)"><g><g><rect fill="rgb(0,0,0)" stroke="none" x="0" y="0" width="131" height="14" fill-opacity="0"/></g></g><g><g><rect fill="rgb(0,0,0)" stroke="none" x="0" y="0" width="131" height="14" fill-opacity="0"/></g></g><g><g><rect fill="rgb(0,0,0)" stroke="none" x="100.3125" y="0" width="31" height="14" fill-opacity="0"/></g></g><g><g><rect fill="rgb(0,0,0)" stroke="none" x="100.3125" y="0" width="31" height="14" fill-opacity="0"/></g><text fill="rgb(0, 0, 0)" stroke="none" font-family="Arial" font-size="12px" font-style="normal" font-weight="normal" text-decoration="" line-height="14px" x="100" y="12">100</text><text fill="rgb(0, 0, 0)" stroke="none" font-family="Arial" font-size="12px" font-style="normal" font-weight="normal" text-decoration="" line-height="14px" x="120" y="12">%</text></g></g><g transform="matrix(1,0,0,1,191,10)"><g><g><rect fill="rgb(0,0,0)" stroke="none" x="0" y="0" width="240" height="16" fill-opacity="0"/></g></g><g><g><rect fill="rgb(0,0,0)" stroke="none" x="0" y="0" width="240" height="16" fill-opacity="0"/></g></g><g><g><rect fill="rgb(0,0,0)" stroke="none" x="67.484375" y="0" width="106" height="16" fill-opacity="0"/></g></g><g><g><rect fill="rgb(0,0,0)" stroke="none" x="67.484375" y="0" width="106" height="16" fill-opacity="0"/></g><text fill="rgb(0, 0, 0)" stroke="none" font-family="Arial" font-size="14px" font-style="normal" font-weight="normal" text-decoration="" line-height="16.5px" x="67" y="13">System</text><text fill="rgb(0, 0, 0)" stroke="none" font-family="Arial" font-size="14px" font-style="normal" font-weight="normal" text-decoration="" line-height="16.5px" x="118" y="13">Capacity</text></g></g><g transform="matrix(1,0,0,1,191,210)"><g><g><rect fill="rgb(0,0,0)" stroke="none" x="0" y="0" width="240" height="16" fill-opacity="0"/></g></g><g><g><rect fill="rgb(0,0,0)" stroke="none" x="0" y="0" width="240" height="16" fill-opacity="0"/></g></g><g><g><rect fill="rgb(0,0,0)" stroke="none" x="56.578125" y="0" width="126" height="16" fill-opacity="0"/></g></g><g><g><rect fill="rgb(0,0,0)" stroke="none" x="56.578125" y="0" width="126" height="16" fill-opacity="0"/></g><text fill="rgb(0, 0, 0)" stroke="none" font-family="Arial" font-size="14px" font-style="normal" font-weight="normal" text-decoration="" line-height="16.5px" x="57" y="13">Database</text><text fill="rgb(0, 0, 0)" stroke="none" font-family="Arial" font-size="14px" font-style="normal" font-weight="normal" text-decoration="" line-height="16.5px" x="120" y="13">Scalability</text></g></g></g></svg>