<svg version="1.1" xmlns="http://www.w3.org/2000/svg" xmlns:xlink="http://www.w3.org/1999/xlink" width="472" height="400"><style xmlns="http://www.w3.org/1999/xhtml"></style><defs/><g transform="translate(0,0)"><g><rect fill="#FFFFFF" stroke="none" x="0" y="0" width="472" height="400"/></g><g transform="translate(0,0) matrix(1,0,0,1,22.5,270)"><g><g transform="translate(0,0) scale(1.75,0.9699999999999999)"><g><path fill="#FFFFFF" stroke="none" d="M 0 0 L 100 0 Q 100 0 100 0 L 100 100 Q 100 100 100 100 L 0 100 Q 0 100 0 100 L 0 0 Q 0 0 0 0 Z"/><g transform="scale(0.5714285714285714,1.0309278350515465)"><path fill="none" stroke="none" d="M 0 0 L 175 0 Q 175 0 175 0 L 175 96.99999999999999 Q 175 96.99999999999999 175 96.99999999999999 L 0 96.99999999999999 Q 0 96.99999999999999 0 96.99999999999999 L 0 0 Q 0 0 0 0 Z"/><path fill="none" stroke="#333333" d="M 0 0 M 0 0 L 175 0 Q 175 0 175 0 L 175 96.99999999999999 Q 175 96.99999999999999 175 96.99999999999999 L 0 96.99999999999999 Q 0 96.99999999999999 0 96.99999999999999 L 0 0 Q 0 0 0 0 Z" stroke-miterlimit="10" stroke-width="2"/></g></g></g></g></g><g transform="matrix(1,0,0,1,32,298)"><g transform="translate(288,0) matrix(1,0,0,1,0,0) translate(-288,0)"><g><rect fill="rgb(0,0,0)" stroke="none" x="0" y="0" width="157" height="42" fill-opacity="0"/></g></g><g transform="translate(288,0) matrix(1,0,0,1,0,0) translate(-288,0)"><g><rect fill="rgb(0,0,0)" stroke="none" x="0" y="0" width="157" height="42" fill-opacity="0"/></g></g><g transform="translate(288,0) matrix(1,0,0,1,0,0) translate(-288,0)"><g><rect fill="rgb(0,0,0)" stroke="none" x="144" y="0" width="55" height="42" fill-opacity="0"/></g></g><g transform="translate(288,0) matrix(1,0,0,1,0,0) translate(-288,0)"><g><rect fill="rgb(0,0,0)" stroke="none" x="144" y="0" width="55" height="42" fill-opacity="0"/></g><text fill="rgb(0, 0, 0)" stroke="none" font-family="Arial" font-size="12px" font-style="normal" font-weight="normal" text-decoration="" line-height="14px" x="144" y="12">03</text><text fill="rgb(0, 0, 0)" stroke="none" font-family="Arial" font-size="12px" font-style="normal" font-weight="normal" text-decoration="" line-height="14px" x="102" y="26">secondary</text><text fill="rgb(0, 0, 0)" stroke="none" font-family="Arial" font-size="12px" font-style="normal" font-weight="normal" text-decoration="" line-height="14px" x="137" y="40">p</text><text fill="rgb(0, 0, 0)" stroke="none" font-family="Arial" font-size="12px" font-style="normal" font-weight="normal" text-decoration="" line-height="14px" x="144" y="40">:</text><text fill="rgb(0, 0, 0)" stroke="none" font-family="Arial" font-size="12px" font-style="normal" font-weight="normal" text-decoration="" line-height="14px" x="151" y="40">1</text></g><g transform="translate(288,0) matrix(1,0,0,1,0,0) translate(-288,0)"><g/></g><g transform="translate(288,0) matrix(1,0,0,1,0,0) translate(-288,0)"><g/></g></g><g transform="translate(0,0) matrix(1,0,0,1,10,10)"><g><g transform="translate(0,0) scale(2.1,0.2)"><g><path fill="#ffffff" stroke="none" d="M 0 0 L 100 0 Q 100 0 100 0 L 100 100 Q 100 100 100 100 L 0 100 Q 0 100 0 100 L 0 0 Q 0 0 0 0 Z"/><g transform="scale(0.47619047619047616,5)"><path fill="none" stroke="none" d="M 0 0 L 210 0 Q 210 0 210 0 L 210 20 Q 210 20 210 20 L 0 20 Q 0 20 0 20 L 0 0 Q 0 0 0 0 Z"/><path fill="none" stroke="#333333" d="M 0 0 M 0 0 L 210 0 Q 210 0 210 0 L 210 20 Q 210 20 210 20 L 0 20 Q 0 20 0 20 L 0 0 Q 0 0 0 0 Z" stroke-miterlimit="10" stroke-width="2"/></g></g></g></g></g><g transform="matrix(1,0,0,1,12,13)"><g transform="translate(146,0) matrix(1,0,0,1,0,0) translate(-146,0)"><g><rect fill="rgb(0,0,0)" stroke="none" x="0" y="0" width="207" height="20" fill-opacity="0"/></g></g><g transform="translate(146,0) matrix(1,0,0,1,0,0) translate(-146,0)"><g><rect fill="rgb(0,0,0)" stroke="none" x="0" y="0" width="207" height="14" fill-opacity="0"/></g></g><g transform="translate(146,0) matrix(1,0,0,1,0,0) translate(-146,0)"><g><rect fill="rgb(0,0,0)" stroke="none" x="73" y="0" width="61" height="14" fill-opacity="0"/></g></g><g transform="translate(146,0) matrix(1,0,0,1,0,0) translate(-146,0)"><g><rect fill="rgb(0,0,0)" stroke="none" x="73" y="0" width="61" height="14" fill-opacity="0"/></g><text fill="rgb(0, 0, 0)" stroke="none" font-family="Arial" font-size="12px" font-style="normal" font-weight="normal" text-decoration="" line-height="14px" x="73" y="12">Primary</text><text fill="rgb(0, 0, 0)" stroke="none" font-family="Arial" font-size="12px" font-style="normal" font-weight="normal" text-decoration="" line-height="14px" x="117" y="12">DC</text></g></g><g transform="translate(0,0) matrix(1,0,0,1,10,30)"><g><g transform="translate(0,0) scale(2.1,3.5)"><g><path fill="rgb(255,255,255)" stroke="none" d="M 0 0 L 100 0 Q 100 0 100 0 L 100 100 Q 100 100 100 100 L 0 100 Q 0 100 0 100 L 0 0 Q 0 0 0 0 Z" fill-opacity="0.008"/><g transform="scale(0.47619047619047616,0.2857142857142857)"><path fill="none" stroke="none" d="M 0 0 L 210 0 Q 210 0 210 0 L 210 350 Q 210 350 210 350 L 0 350 Q 0 350 0 350 L 0 0 Q 0 0 0 0 Z"/><path fill="none" stroke="#333333" d="M 0 0 M 0 0 L 210 0 Q 210 0 210 0 L 210 350 Q 210 350 210 350 L 0 350 Q 0 350 0 350 L 0 0 Q 0 0 0 0 Z" stroke-miterlimit="10" stroke-width="2"/></g></g></g></g></g><g transform="matrix(1,0,0,1,12,33)"><g transform="translate(101,0) matrix(1,0,0,1,0,0) translate(-101,0)"><g><rect fill="rgb(0,0,0)" stroke="none" x="0" y="0" width="207" height="26" fill-opacity="0"/></g></g><g transform="translate(101,0) matrix(1,0,0,1,0,0) translate(-101,0)"><g><rect fill="rgb(0,0,0)" stroke="none" x="0" y="0" width="207" height="20" fill-opacity="0"/></g></g><g transform="translate(101,0) matrix(1,0,0,1,0,0) translate(-101,0)"><g><rect fill="rgb(0,0,0)" stroke="none" x="101" y="0" width="5" height="20" fill-opacity="0"/></g></g></g><g transform="translate(0,0) matrix(1,0,0,1,47.5,288.5)"><g><g transform="translate(0,0) scale(0.6,0.6)"><g><g transform="scale(1.6666666666666667,1.6666666666666667)"><path fill="#6aa84f" stroke="none" d="M 60 0 L 60 52.5 Q 60 60 30 60 Q 0 60 0 52.5 L 0 0 Q 0 -7.5 30 -7.5 Q 60 -7.5 60 0 Q 60 7.5 30 7.5 Q 0 7.5 0 0"/><path fill="none" stroke="#000000" d="M 60 0 M 60 0 L 60 52.5 Q 60 60 30 60 Q 0 60 0 52.5 L 0 0 Q 0 -7.5 30 -7.5 Q 60 -7.5 60 0 Q 60 7.5 30 7.5 Q 0 7.5 0 0" stroke-miterlimit="10" stroke-width="2"/></g></g></g></g></g><g transform="translate(0,0) matrix(1,0,0,1,22.5,156.50000000000003)"><g><g transform="translate(0,0) scale(1.75,0.9699999999999999)"><g><path fill="#FFFFFF" stroke="none" d="M 0 0 L 100 0 Q 100 0 100 0 L 100 100 Q 100 100 100 100 L 0 100 Q 0 100 0 100 L 0 0 Q 0 0 0 0 Z"/><g transform="scale(0.5714285714285714,1.0309278350515465)"><path fill="none" stroke="none" d="M 0 0 L 175 0 Q 175 0 175 0 L 175 96.99999999999999 Q 175 96.99999999999999 175 96.99999999999999 L 0 96.99999999999999 Q 0 96.99999999999999 0 96.99999999999999 L 0 0 Q 0 0 0 0 Z"/><path fill="none" stroke="#333333" d="M 0 0 M 0 0 L 175 0 Q 175 0 175 0 L 175 96.99999999999999 Q 175 96.99999999999999 175 96.99999999999999 L 0 96.99999999999999 Q 0 96.99999999999999 0 96.99999999999999 L 0 0 Q 0 0 0 0 Z" stroke-miterlimit="10" stroke-width="2"/></g></g></g></g></g><g transform="matrix(1,0,0,1,32,184)"><g transform="translate(288,0) matrix(1,0,0,1,0,0) translate(-288,0)"><g><rect fill="rgb(0,0,0)" stroke="none" x="0" y="0" width="157" height="42" fill-opacity="0"/></g></g><g transform="translate(288,0) matrix(1,0,0,1,0,0) translate(-288,0)"><g><rect fill="rgb(0,0,0)" stroke="none" x="0" y="0" width="157" height="42" fill-opacity="0"/></g></g><g transform="translate(288,0) matrix(1,0,0,1,0,0) translate(-288,0)"><g><rect fill="rgb(0,0,0)" stroke="none" x="144" y="0" width="55" height="42" fill-opacity="0"/></g></g><g transform="translate(288,0) matrix(1,0,0,1,0,0) translate(-288,0)"><g><rect fill="rgb(0,0,0)" stroke="none" x="144" y="0" width="55" height="42" fill-opacity="0"/></g><text fill="rgb(0, 0, 0)" stroke="none" font-family="Arial" font-size="12px" font-style="normal" font-weight="normal" text-decoration="" line-height="14px" x="144" y="12">02</text><text fill="rgb(0, 0, 0)" stroke="none" font-family="Arial" font-size="12px" font-style="normal" font-weight="normal" text-decoration="" line-height="14px" x="102" y="26">secondary</text><text fill="rgb(0, 0, 0)" stroke="none" font-family="Arial" font-size="12px" font-style="normal" font-weight="normal" text-decoration="" line-height="14px" x="137" y="40">p</text><text fill="rgb(0, 0, 0)" stroke="none" font-family="Arial" font-size="12px" font-style="normal" font-weight="normal" text-decoration="" line-height="14px" x="144" y="40">:</text><text fill="rgb(0, 0, 0)" stroke="none" font-family="Arial" font-size="12px" font-style="normal" font-weight="normal" text-decoration="" line-height="14px" x="151" y="40">1</text></g><g transform="translate(288,0) matrix(1,0,0,1,0,0) translate(-288,0)"><g/></g><g transform="translate(288,0) matrix(1,0,0,1,0,0) translate(-288,0)"><g/></g></g><g transform="translate(0,0) matrix(1,0,0,1,47.5,175.00000000000003)"><g><g transform="translate(0,0) scale(0.6,0.6)"><g><g transform="scale(1.6666666666666667,1.6666666666666667)"><path fill="#6aa84f" stroke="none" d="M 60 0 L 60 52.5 Q 60 60 30 60 Q 0 60 0 52.5 L 0 0 Q 0 -7.5 30 -7.5 Q 60 -7.5 60 0 Q 60 7.5 30 7.5 Q 0 7.5 0 0"/><path fill="none" stroke="#000000" d="M 60 0 M 60 0 L 60 52.5 Q 60 60 30 60 Q 0 60 0 52.5 L 0 0 Q 0 -7.5 30 -7.5 Q 60 -7.5 60 0 Q 60 7.5 30 7.5 Q 0 7.5 0 0" stroke-miterlimit="10" stroke-width="2"/></g></g></g></g></g><g transform="translate(0,0) matrix(1,0,0,1,22.5,43.00000000000001)"><g><g transform="translate(0,0) scale(1.75,0.9699999999999999)"><g><path fill="#FFFFFF" stroke="none" d="M 0 0 L 100 0 Q 100 0 100 0 L 100 100 Q 100 100 100 100 L 0 100 Q 0 100 0 100 L 0 0 Q 0 0 0 0 Z"/><g transform="scale(0.5714285714285714,1.0309278350515465)"><path fill="none" stroke="none" d="M 0 0 L 175 0 Q 175 0 175 0 L 175 96.99999999999999 Q 175 96.99999999999999 175 96.99999999999999 L 0 96.99999999999999 Q 0 96.99999999999999 0 96.99999999999999 L 0 0 Q 0 0 0 0 Z"/><path fill="none" stroke="#333333" d="M 0 0 M 0 0 L 175 0 Q 175 0 175 0 L 175 96.99999999999999 Q 175 96.99999999999999 175 96.99999999999999 L 0 96.99999999999999 Q 0 96.99999999999999 0 96.99999999999999 L 0 0 Q 0 0 0 0 Z" stroke-miterlimit="10" stroke-width="2"/></g></g></g></g></g><g transform="matrix(1,0,0,1,32,71)"><g transform="translate(288,0) matrix(1,0,0,1,0,0) translate(-288,0)"><g><rect fill="rgb(0,0,0)" stroke="none" x="0" y="0" width="157" height="42" fill-opacity="0"/></g></g><g transform="translate(288,0) matrix(1,0,0,1,0,0) translate(-288,0)"><g><rect fill="rgb(0,0,0)" stroke="none" x="0" y="0" width="157" height="42" fill-opacity="0"/></g></g><g transform="translate(288,0) matrix(1,0,0,1,0,0) translate(-288,0)"><g><rect fill="rgb(0,0,0)" stroke="none" x="144" y="0" width="55" height="42" fill-opacity="0"/></g></g><g transform="translate(288,0) matrix(1,0,0,1,0,0) translate(-288,0)"><g><rect fill="rgb(0,0,0)" stroke="none" x="144" y="0" width="55" height="42" fill-opacity="0"/></g><text fill="rgb(0, 0, 0)" stroke="none" font-family="Arial" font-size="12px" font-style="normal" font-weight="bold" text-decoration="" line-height="14px" x="144" y="12">01</text><text fill="rgb(0, 0, 0)" stroke="none" font-family="Arial" font-size="12px" font-style="normal" font-weight="bold" text-decoration="" line-height="14px" x="103" y="26">PRIMARY</text><text fill="rgb(0, 0, 0)" stroke="none" font-family="Arial" font-size="12px" font-style="normal" font-weight="bold" text-decoration="" line-height="14px" x="136" y="40">p</text><text fill="rgb(0, 0, 0)" stroke="none" font-family="Arial" font-size="12px" font-style="normal" font-weight="bold" text-decoration="" line-height="14px" x="143" y="40">:</text><text fill="rgb(0, 0, 0)" stroke="none" font-family="Arial" font-size="12px" font-style="normal" font-weight="bold" text-decoration="" line-height="14px" x="151" y="40">1</text></g><g transform="translate(288,0) matrix(1,0,0,1,0,0) translate(-288,0)"><g/></g><g transform="translate(288,0) matrix(1,0,0,1,0,0) translate(-288,0)"><g/></g></g><g transform="translate(0,0) matrix(1,0,0,1,47.5,61.5)"><g><g transform="translate(0,0) scale(0.6,0.6)"><g><g transform="scale(1.6666666666666667,1.6666666666666667)"><path fill="#3c78d8" stroke="none" d="M 60 0 L 60 52.5 Q 60 60 30 60 Q 0 60 0 52.5 L 0 0 Q 0 -7.5 30 -7.5 Q 60 -7.5 60 0 Q 60 7.5 30 7.5 Q 0 7.5 0 0"/><path fill="none" stroke="#000000" d="M 60 0 M 60 0 L 60 52.5 Q 60 60 30 60 Q 0 60 0 52.5 L 0 0 Q 0 -7.5 30 -7.5 Q 60 -7.5 60 0 Q 60 7.5 30 7.5 Q 0 7.5 0 0" stroke-miterlimit="10" stroke-width="2"/></g></g></g></g></g><g transform="translate(0,0) matrix(1,0,0,1,252.5,270)"><g><g transform="translate(0,0) scale(1.75,0.9699999999999999)"><g><path fill="#FFFFFF" stroke="none" d="M 0 0 L 100 0 Q 100 0 100 0 L 100 100 Q 100 100 100 100 L 0 100 Q 0 100 0 100 L 0 0 Q 0 0 0 0 Z"/><g transform="scale(0.5714285714285714,1.0309278350515465)"><path fill="none" stroke="none" d="M 0 0 L 175 0 Q 175 0 175 0 L 175 96.99999999999999 Q 175 96.99999999999999 175 96.99999999999999 L 0 96.99999999999999 Q 0 96.99999999999999 0 96.99999999999999 L 0 0 Q 0 0 0 0 Z"/><path fill="none" stroke="#333333" d="M 0 0 M 0 0 L 175 0 Q 175 0 175 0 L 175 96.99999999999999 Q 175 96.99999999999999 175 96.99999999999999 L 0 96.99999999999999 Q 0 96.99999999999999 0 96.99999999999999 L 0 0 Q 0 0 0 0 Z" stroke-miterlimit="10" stroke-width="2"/></g></g></g></g></g><g transform="matrix(1,0,0,1,262,298)"><g transform="translate(288,0) matrix(1,0,0,1,0,0) translate(-288,0)"><g><rect fill="rgb(0,0,0)" stroke="none" x="0" y="0" width="157" height="42" fill-opacity="0"/></g></g><g transform="translate(288,0) matrix(1,0,0,1,0,0) translate(-288,0)"><g><rect fill="rgb(0,0,0)" stroke="none" x="0" y="0" width="157" height="42" fill-opacity="0"/></g></g><g transform="translate(288,0) matrix(1,0,0,1,0,0) translate(-288,0)"><g><rect fill="rgb(0,0,0)" stroke="none" x="144" y="0" width="55" height="42" fill-opacity="0"/></g></g><g transform="translate(288,0) matrix(1,0,0,1,0,0) translate(-288,0)"><g><rect fill="rgb(0,0,0)" stroke="none" x="144" y="0" width="55" height="42" fill-opacity="0"/></g><text fill="rgb(0, 0, 0)" stroke="none" font-family="Arial" font-size="12px" font-style="normal" font-weight="normal" text-decoration="" line-height="14px" x="144" y="12">06</text><text fill="rgb(0, 0, 0)" stroke="none" font-family="Arial" font-size="12px" font-style="normal" font-weight="normal" text-decoration="" line-height="14px" x="102" y="26">secondary</text><text fill="rgb(0, 0, 0)" stroke="none" font-family="Arial" font-size="12px" font-style="normal" font-weight="normal" text-decoration="" line-height="14px" x="137" y="40">p</text><text fill="rgb(0, 0, 0)" stroke="none" font-family="Arial" font-size="12px" font-style="normal" font-weight="normal" text-decoration="" line-height="14px" x="144" y="40">:</text><text fill="rgb(0, 0, 0)" stroke="none" font-family="Arial" font-size="12px" font-style="normal" font-weight="normal" text-decoration="" line-height="14px" x="151" y="40">0</text></g><g transform="translate(288,0) matrix(1,0,0,1,0,0) translate(-288,0)"><g/></g><g transform="translate(288,0) matrix(1,0,0,1,0,0) translate(-288,0)"><g/></g></g><g transform="translate(0,0) matrix(1,0,0,1,240,10)"><g><g transform="translate(0,0) scale(2.1,0.2)"><g><path fill="#ffffff" stroke="none" d="M 0 0 L 100 0 Q 100 0 100 0 L 100 100 Q 100 100 100 100 L 0 100 Q 0 100 0 100 L 0 0 Q 0 0 0 0 Z"/><g transform="scale(0.47619047619047616,5)"><path fill="none" stroke="none" d="M 0 0 L 210 0 Q 210 0 210 0 L 210 20 Q 210 20 210 20 L 0 20 Q 0 20 0 20 L 0 0 Q 0 0 0 0 Z"/><path fill="none" stroke="#333333" d="M 0 0 M 0 0 L 210 0 Q 210 0 210 0 L 210 20 Q 210 20 210 20 L 0 20 Q 0 20 0 20 L 0 0 Q 0 0 0 0 Z" stroke-miterlimit="10" stroke-width="2"/></g></g></g></g></g><g transform="matrix(1,0,0,1,242,13)"><g transform="translate(170,0) matrix(1,0,0,1,0,0) translate(-170,0)"><g><rect fill="rgb(0,0,0)" stroke="none" x="0" y="0" width="207" height="20" fill-opacity="0"/></g></g><g transform="translate(170,0) matrix(1,0,0,1,0,0) translate(-170,0)"><g><rect fill="rgb(0,0,0)" stroke="none" x="0" y="0" width="207" height="14" fill-opacity="0"/></g></g><g transform="translate(170,0) matrix(1,0,0,1,0,0) translate(-170,0)"><g><rect fill="rgb(0,0,0)" stroke="none" x="85" y="0" width="37" height="14" fill-opacity="0"/></g></g><g transform="translate(170,0) matrix(1,0,0,1,0,0) translate(-170,0)"><g><rect fill="rgb(0,0,0)" stroke="none" x="85" y="0" width="37" height="14" fill-opacity="0"/></g><text fill="rgb(0, 0, 0)" stroke="none" font-family="Arial" font-size="12px" font-style="normal" font-weight="normal" text-decoration="" line-height="14px" x="85" y="12">DR</text><text fill="rgb(0, 0, 0)" stroke="none" font-family="Arial" font-size="12px" font-style="normal" font-weight="normal" text-decoration="" line-height="14px" x="105" y="12">DC</text></g></g><g transform="translate(0,0) matrix(1,0,0,1,240,30)"><g><g transform="translate(0,0) scale(2.1,3.5)"><g><path fill="rgb(255,255,255)" stroke="none" d="M 0 0 L 100 0 Q 100 0 100 0 L 100 100 Q 100 100 100 100 L 0 100 Q 0 100 0 100 L 0 0 Q 0 0 0 0 Z" fill-opacity="0.008"/><g transform="scale(0.47619047619047616,0.2857142857142857)"><path fill="none" stroke="none" d="M 0 0 L 210 0 Q 210 0 210 0 L 210 350 Q 210 350 210 350 L 0 350 Q 0 350 0 350 L 0 0 Q 0 0 0 0 Z"/><path fill="none" stroke="#333333" d="M 0 0 M 0 0 L 210 0 Q 210 0 210 0 L 210 350 Q 210 350 210 350 L 0 350 Q 0 350 0 350 L 0 0 Q 0 0 0 0 Z" stroke-miterlimit="10" stroke-width="2"/></g></g></g></g></g><g transform="matrix(1,0,0,1,242,33)"><g transform="translate(101,0) matrix(1,0,0,1,0,0) translate(-101,0)"><g><rect fill="rgb(0,0,0)" stroke="none" x="0" y="0" width="207" height="26" fill-opacity="0"/></g></g><g transform="translate(101,0) matrix(1,0,0,1,0,0) translate(-101,0)"><g><rect fill="rgb(0,0,0)" stroke="none" x="0" y="0" width="207" height="20" fill-opacity="0"/></g></g><g transform="translate(101,0) matrix(1,0,0,1,0,0) translate(-101,0)"><g><rect fill="rgb(0,0,0)" stroke="none" x="101" y="0" width="5" height="20" fill-opacity="0"/></g></g></g><g transform="translate(0,0) matrix(1,0,0,1,277.5,288.5)"><g><g transform="translate(0,0) scale(0.6,0.6)"><g><g transform="scale(1.6666666666666667,1.6666666666666667)"><path fill="#b7b7b7" stroke="none" d="M 60 0 L 60 52.5 Q 60 60 30 60 Q 0 60 0 52.5 L 0 0 Q 0 -7.5 30 -7.5 Q 60 -7.5 60 0 Q 60 7.5 30 7.5 Q 0 7.5 0 0"/><path fill="none" stroke="#000000" d="M 60 0 M 60 0 L 60 52.5 Q 60 60 30 60 Q 0 60 0 52.5 L 0 0 Q 0 -7.5 30 -7.5 Q 60 -7.5 60 0 Q 60 7.5 30 7.5 Q 0 7.5 0 0" stroke-miterlimit="10" stroke-width="2"/></g></g></g></g></g><g transform="translate(0,0) matrix(1,0,0,1,252.5,156.50000000000003)"><g><g transform="translate(0,0) scale(1.75,0.9699999999999999)"><g><path fill="#FFFFFF" stroke="none" d="M 0 0 L 100 0 Q 100 0 100 0 L 100 100 Q 100 100 100 100 L 0 100 Q 0 100 0 100 L 0 0 Q 0 0 0 0 Z"/><g transform="scale(0.5714285714285714,1.0309278350515465)"><path fill="none" stroke="none" d="M 0 0 L 175 0 Q 175 0 175 0 L 175 96.99999999999999 Q 175 96.99999999999999 175 96.99999999999999 L 0 96.99999999999999 Q 0 96.99999999999999 0 96.99999999999999 L 0 0 Q 0 0 0 0 Z"/><path fill="none" stroke="#333333" d="M 0 0 M 0 0 L 175 0 Q 175 0 175 0 L 175 96.99999999999999 Q 175 96.99999999999999 175 96.99999999999999 L 0 96.99999999999999 Q 0 96.99999999999999 0 96.99999999999999 L 0 0 Q 0 0 0 0 Z" stroke-miterlimit="10" stroke-width="2"/></g></g></g></g></g><g transform="matrix(1,0,0,1,262,184)"><g transform="translate(288,0) matrix(1,0,0,1,0,0) translate(-288,0)"><g><rect fill="rgb(0,0,0)" stroke="none" x="0" y="0" width="157" height="42" fill-opacity="0"/></g></g><g transform="translate(288,0) matrix(1,0,0,1,0,0) translate(-288,0)"><g><rect fill="rgb(0,0,0)" stroke="none" x="0" y="0" width="157" height="42" fill-opacity="0"/></g></g><g transform="translate(288,0) matrix(1,0,0,1,0,0) translate(-288,0)"><g><rect fill="rgb(0,0,0)" stroke="none" x="144" y="0" width="55" height="42" fill-opacity="0"/></g></g><g transform="translate(288,0) matrix(1,0,0,1,0,0) translate(-288,0)"><g><rect fill="rgb(0,0,0)" stroke="none" x="144" y="0" width="55" height="42" fill-opacity="0"/></g><text fill="rgb(0, 0, 0)" stroke="none" font-family="Arial" font-size="12px" font-style="normal" font-weight="normal" text-decoration="" line-height="14px" x="144" y="12">05</text><text fill="rgb(0, 0, 0)" stroke="none" font-family="Arial" font-size="12px" font-style="normal" font-weight="normal" text-decoration="" line-height="14px" x="102" y="26">secondary</text><text fill="rgb(0, 0, 0)" stroke="none" font-family="Arial" font-size="12px" font-style="normal" font-weight="normal" text-decoration="" line-height="14px" x="137" y="40">p</text><text fill="rgb(0, 0, 0)" stroke="none" font-family="Arial" font-size="12px" font-style="normal" font-weight="normal" text-decoration="" line-height="14px" x="144" y="40">:</text><text fill="rgb(0, 0, 0)" stroke="none" font-family="Arial" font-size="12px" font-style="normal" font-weight="normal" text-decoration="" line-height="14px" x="151" y="40">0</text></g><g transform="translate(288,0) matrix(1,0,0,1,0,0) translate(-288,0)"><g/></g><g transform="translate(288,0) matrix(1,0,0,1,0,0) translate(-288,0)"><g/></g></g><g transform="translate(0,0) matrix(1,0,0,1,277.5,175.00000000000003)"><g><g transform="translate(0,0) scale(0.6,0.6)"><g><g transform="scale(1.6666666666666667,1.6666666666666667)"><path fill="#b7b7b7" stroke="none" d="M 60 0 L 60 52.5 Q 60 60 30 60 Q 0 60 0 52.5 L 0 0 Q 0 -7.5 30 -7.5 Q 60 -7.5 60 0 Q 60 7.5 30 7.5 Q 0 7.5 0 0"/><path fill="none" stroke="#000000" d="M 60 0 M 60 0 L 60 52.5 Q 60 60 30 60 Q 0 60 0 52.5 L 0 0 Q 0 -7.5 30 -7.5 Q 60 -7.5 60 0 Q 60 7.5 30 7.5 Q 0 7.5 0 0" stroke-miterlimit="10" stroke-width="2"/></g></g></g></g></g><g transform="translate(0,0) matrix(1,0,0,1,252.5,43.00000000000001)"><g><g transform="translate(0,0) scale(1.75,0.9699999999999999)"><g><path fill="#FFFFFF" stroke="none" d="M 0 0 L 100 0 Q 100 0 100 0 L 100 100 Q 100 100 100 100 L 0 100 Q 0 100 0 100 L 0 0 Q 0 0 0 0 Z"/><g transform="scale(0.5714285714285714,1.0309278350515465)"><path fill="none" stroke="none" d="M 0 0 L 175 0 Q 175 0 175 0 L 175 96.99999999999999 Q 175 96.99999999999999 175 96.99999999999999 L 0 96.99999999999999 Q 0 96.99999999999999 0 96.99999999999999 L 0 0 Q 0 0 0 0 Z"/><path fill="none" stroke="#333333" d="M 0 0 M 0 0 L 175 0 Q 175 0 175 0 L 175 96.99999999999999 Q 175 96.99999999999999 175 96.99999999999999 L 0 96.99999999999999 Q 0 96.99999999999999 0 96.99999999999999 L 0 0 Q 0 0 0 0 Z" stroke-miterlimit="10" stroke-width="2"/></g></g></g></g></g><g transform="matrix(1,0,0,1,262,71)"><g transform="translate(288,0) matrix(1,0,0,1,0,0) translate(-288,0)"><g><rect fill="rgb(0,0,0)" stroke="none" x="0" y="0" width="157" height="42" fill-opacity="0"/></g></g><g transform="translate(288,0) matrix(1,0,0,1,0,0) translate(-288,0)"><g><rect fill="rgb(0,0,0)" stroke="none" x="0" y="0" width="157" height="42" fill-opacity="0"/></g></g><g transform="translate(288,0) matrix(1,0,0,1,0,0) translate(-288,0)"><g><rect fill="rgb(0,0,0)" stroke="none" x="144" y="0" width="55" height="42" fill-opacity="0"/></g></g><g transform="translate(288,0) matrix(1,0,0,1,0,0) translate(-288,0)"><g><rect fill="rgb(0,0,0)" stroke="none" x="144" y="0" width="55" height="42" fill-opacity="0"/></g><text fill="rgb(0, 0, 0)" stroke="none" font-family="Arial" font-size="12px" font-style="normal" font-weight="normal" text-decoration="" line-height="14px" x="144" y="12">04</text><text fill="rgb(0, 0, 0)" stroke="none" font-family="Arial" font-size="12px" font-style="normal" font-weight="normal" text-decoration="" line-height="14px" x="102" y="26">secondary</text><text fill="rgb(0, 0, 0)" stroke="none" font-family="Arial" font-size="12px" font-style="normal" font-weight="normal" text-decoration="" line-height="14px" x="137" y="40">p</text><text fill="rgb(0, 0, 0)" stroke="none" font-family="Arial" font-size="12px" font-style="normal" font-weight="normal" text-decoration="" line-height="14px" x="144" y="40">:</text><text fill="rgb(0, 0, 0)" stroke="none" font-family="Arial" font-size="12px" font-style="normal" font-weight="normal" text-decoration="" line-height="14px" x="151" y="40">0</text></g><g transform="translate(288,0) matrix(1,0,0,1,0,0) translate(-288,0)"><g/></g><g transform="translate(288,0) matrix(1,0,0,1,0,0) translate(-288,0)"><g/></g></g><g transform="translate(0,0) matrix(1,0,0,1,277.5,61.5)"><g><g transform="translate(0,0) scale(0.6,0.6)"><g><g transform="scale(1.6666666666666667,1.6666666666666667)"><path fill="#b7b7b7" stroke="none" d="M 60 0 L 60 52.5 Q 60 60 30 60 Q 0 60 0 52.5 L 0 0 Q 0 -7.5 30 -7.5 Q 60 -7.5 60 0 Q 60 7.5 30 7.5 Q 0 7.5 0 0"/><path fill="none" stroke="#000000" d="M 60 0 M 60 0 L 60 52.5 Q 60 60 30 60 Q 0 60 0 52.5 L 0 0 Q 0 -7.5 30 -7.5 Q 60 -7.5 60 0 Q 60 7.5 30 7.5 Q 0 7.5 0 0" stroke-miterlimit="10" stroke-width="2"/></g></g></g></g></g></g></svg>