<svg version="1.1" xmlns="http://www.w3.org/2000/svg" xmlns:xlink="http://www.w3.org/1999/xlink" width="610" height="380"><style xmlns="http://www.w3.org/1999/xhtml"></style><defs/><g transform="translate(0,0)"><g><rect fill="#FFFFFF" stroke="none" x="0" y="0" width="610" height="380"/></g><g transform="translate(0,0) matrix(1,0,0,1,11,330)"><g><g transform="translate(0,0) scale(0.8,0.3)"><g><path fill="rgb(0,0,0)" stroke="none" d="M 0 0 L 100 0 Q 100 0 100 0 L 100 100 Q 100 100 100 100 L 0 100 Q 0 100 0 100 L 0 0 Q 0 0 0 0 Z" fill-opacity="0"/><g transform="scale(1.25,3.3333333333333335)"><path fill="none" stroke="rbga(0,0,0,0)" d="M 0 0 L 80 0 Q 80 0 80 0 L 80 30 Q 80 30 80 30 L 0 30 Q 0 30 0 30 L 0 0 Q 0 0 0 0 Z" stroke-miterlimit="10" stroke-width="2"/></g></g></g></g></g><g transform="translate(0,0) matrix(1,0,0,1,10,330)"><g><g transform="translate(0,0) scale(0.9991119005328597,0.5769230769230769)"><g><g transform="scale(1.000888888888889,1.7333333333333334)"><path fill="#FFFFFF" stroke="#000000" d="M 27 0 L 2.0781527531083483 0 L 22.056394316163413 14.999999999999998 L 2.0781527531083483 29.999999999999996 L 27 29.999999999999996" stroke-miterlimit="3" stroke-width="2"/></g></g></g></g></g><g transform="translate(0,0) matrix(1,0,0,1,37,330)"><g><g transform="translate(0,0) scale(0.58,0.5769230769230769)"><g><g><path fill="#FFFFFF" stroke="rgb(0,0,0)" d="M 0 0 L 50 0 Q 50 0 50 0 L 50 52 Q 50 52 50 52 L 0 52 Q 0 52 0 52 L 0 0 Q 0 0 0 0 Z" stroke-opacity="0" stroke-miterlimit="10"/></g><g><g transform="scale(1.7241379310344829,1.7333333333333334)"><path fill="none" stroke="#000000" d="M 0 0 L 28.999999999999996 0" stroke-miterlimit="3" stroke-width="2"/></g></g><g><g transform="scale(1.7241379310344829,1.7333333333333334)"><path fill="none" stroke="#000000" d="M 28.999999999999996 29.999999999999996 L 0 29.999999999999996" stroke-miterlimit="3" stroke-width="2"/></g></g></g></g></g></g><g transform="matrix(1,0,0,1,39,338)"><g><g><rect fill="rgb(0,0,0)" stroke="none" x="0" y="0" width="26" height="20" fill-opacity="0"/></g></g><g><g><rect fill="rgb(0,0,0)" stroke="none" x="0" y="0" width="26" height="14" fill-opacity="0"/></g></g><g><g><rect fill="rgb(0,0,0)" stroke="none" x="6.671875" y="0" width="12" height="14" fill-opacity="0"/></g><text fill="rgb(0, 0, 0)" stroke="none" font-family="Arial" font-size="12px" font-style="normal" font-weight="normal" text-decoration="" line-height="14px" x="6.671875" y="12">IO</text></g></g><g transform="translate(0,0) matrix(1,0,0,1,66,330)"><g><g transform="translate(0,0) scale(1,0.5769230769230769)"><g><g transform="scale(1,1.7333333333333334)"><path fill="#FFFFFF" stroke="#000000" d="M 0 29.999999999999996 L 5.3 29.999999999999996 L 25 14.999999999999998 L 5.3 0 L 0 0" stroke-miterlimit="3" stroke-width="2"/></g></g></g></g></g><g transform="translate(0,0) matrix(1,0,0,1,190,217.5)"><g><g transform="translate(0,0) scale(0.8,0.3)"><g><path fill="rgb(0,0,0)" stroke="none" d="M 0 0 L 100 0 Q 100 0 100 0 L 100 100 Q 100 100 100 100 L 0 100 Q 0 100 0 100 L 0 0 Q 0 0 0 0 Z" fill-opacity="0"/><g transform="scale(1.25,3.3333333333333335)"><path fill="none" stroke="rbga(0,0,0,0)" d="M 0 0 L 80 0 Q 80 0 80 0 L 80 30 Q 80 30 80 30 L 0 30 Q 0 30 0 30 L 0 0 Q 0 0 0 0 Z" stroke-miterlimit="10" stroke-width="2"/></g></g></g></g></g><g transform="translate(0,0) matrix(1,0,0,1,190,217.5)"><g><g transform="translate(0,0) scale(1,0.5769230769230769)"><g><g transform="scale(1,1.7333333333333334)"><path fill="#38761d" stroke="#000000" d="M 26 29.999999999999996 L 21.3 29.999999999999996 L 0 14.999999999999998 L 21.3 0 L 26 0" stroke-miterlimit="3" stroke-width="2"/></g></g></g></g></g><g transform="translate(0,0) matrix(1,0,0,1,216,217.5)"><g><g transform="translate(0,0) scale(0.58,0.5769230769230769)"><g><g><path fill="#38761d" stroke="rgb(0,0,0)" d="M 0 0 L 50 0 Q 50 0 50 0 L 50 52 Q 50 52 50 52 L 0 52 Q 0 52 0 52 L 0 0 Q 0 0 0 0 Z" stroke-opacity="0" stroke-miterlimit="10"/></g><g><g transform="scale(1.7241379310344829,1.7333333333333334)"><path fill="none" stroke="#000000" d="M 0 0 L 28.999999999999996 0" stroke-miterlimit="3" stroke-width="2"/></g></g><g><g transform="scale(1.7241379310344829,1.7333333333333334)"><path fill="none" stroke="#000000" d="M 28.999999999999996 29.999999999999996 L 0 29.999999999999996" stroke-miterlimit="3" stroke-width="2"/></g></g></g></g></g></g><g transform="matrix(1,0,0,1,218,226)"><g><g><rect fill="rgb(0,0,0)" stroke="none" x="0" y="0" width="26" height="20" fill-opacity="0"/></g></g><g><g><rect fill="rgb(0,0,0)" stroke="none" x="0" y="0" width="26" height="14" fill-opacity="0"/></g></g><g><g><rect fill="rgb(0,0,0)" stroke="none" x="1" y="0" width="24" height="14" fill-opacity="0"/></g><text fill="rgb(0, 255, 0)" stroke="none" font-family="Arial" font-size="12px" font-style="normal" font-weight="normal" text-decoration="" line-height="14px" x="1" y="12">SQL</text></g></g><g transform="translate(0,0) matrix(1,0,0,1,245,217.5)"><g><g transform="translate(0,0) scale(1.0843373493975905,0.5769230769230769)"><g><g transform="scale(0.922222222222222,1.7333333333333334)"><path fill="#38761d" stroke="#000000" d="M 0 0 L 27.000000000000004 0 L 5.313253012048194 14.999999999999998 L 27.000000000000004 29.999999999999996 L 0 29.999999999999996" stroke-miterlimit="3" stroke-width="2"/></g></g></g></g></g><g transform="translate(0,0) matrix(1,0,0,1,90,120)"><g><g transform="translate(0,0) scale(1,0.75)"><g><path fill="none" stroke="none" d="M 10 0 L 90 0 Q 100 0 100 10 L 100 90 Q 100 100 90 100 L 10 100 Q 0 100 0 90 L 0 10 Q 0 0 10 0 Z"/><g transform="scale(1,1.3333333333333333)"><path fill="#434343" stroke="none" d="M 10 0 L 90 0 Q 100 0 100 10 L 100 65 Q 100 75 90 75 L 10 75 Q 0 75 0 65 L 0 10 Q 0 0 10 0 Z"/><path fill="none" stroke="#333333" d="M 10 0 M 10 0 L 90 0 Q 100 0 100 10 L 100 65 Q 100 75 90 75 L 10 75 Q 0 75 0 65 L 0 10 Q 0 0 10 0 Z" stroke-miterlimit="10" stroke-width="2"/></g></g></g></g></g><g transform="matrix(1,0,0,1,100,144)"><g><g><rect fill="rgb(0,0,0)" stroke="none" x="0" y="0" width="81" height="28" fill-opacity="0"/></g></g><g><g><rect fill="rgb(0,0,0)" stroke="none" x="0" y="0" width="81" height="14" fill-opacity="0"/></g></g><g><g><rect fill="rgb(0,0,0)" stroke="none" x="24.15625" y="0" width="33" height="14" fill-opacity="0"/></g><text fill="rgb(0, 255, 255)" stroke="none" font-family="Arial" font-size="12px" font-style="normal" font-weight="normal" text-decoration="" line-height="14px" x="24" y="12">pos</text><text fill="rgb(0, 255, 255)" stroke="none" font-family="Arial" font-size="12px" font-style="normal" font-weight="normal" text-decoration="" line-height="14px" x="44" y="12">:</text><text fill="rgb(0, 255, 255)" stroke="none" font-family="Arial" font-size="12px" font-style="normal" font-weight="normal" text-decoration="" line-height="14px" x="50" y="12">0</text></g><g><g><rect fill="rgb(0,0,0)" stroke="none" x="0" y="14" width="81" height="14" fill-opacity="0"/></g></g><g><g><rect fill="rgb(0,0,0)" stroke="none" x="6.59375" y="14" width="67" height="14" fill-opacity="0"/></g><text fill="rgb(0, 255, 255)" stroke="none" font-family="Arial" font-size="12px" font-style="normal" font-weight="normal" text-decoration="" line-height="14px" x="7" y="26">UPDATE</text><text fill="rgb(0, 255, 255)" stroke="none" font-family="Arial" font-size="12px" font-style="normal" font-weight="normal" text-decoration="" line-height="14px" x="58" y="26">foo</text></g></g><g transform="translate(0,0) matrix(1,0,0,1,90,195)"><g><g transform="translate(0,0) scale(1,0.75)"><g><path fill="none" stroke="none" d="M 10 0 L 90 0 Q 100 0 100 10 L 100 90 Q 100 100 90 100 L 10 100 Q 0 100 0 90 L 0 10 Q 0 0 10 0 Z"/><g transform="scale(1,1.3333333333333333)"><path fill="#38761d" stroke="none" d="M 10 0 L 90 0 Q 100 0 100 10 L 100 65 Q 100 75 90 75 L 10 75 Q 0 75 0 65 L 0 10 Q 0 0 10 0 Z"/><path fill="none" stroke="#333333" d="M 10 0 M 10 0 L 90 0 Q 100 0 100 10 L 100 65 Q 100 75 90 75 L 10 75 Q 0 75 0 65 L 0 10 Q 0 0 10 0 Z" stroke-miterlimit="10" stroke-width="2"/></g></g></g></g></g><g transform="matrix(1,0,0,1,100,219)"><g><g><rect fill="rgb(0,0,0)" stroke="none" x="0" y="0" width="81" height="28" fill-opacity="0"/></g></g><g><g><rect fill="rgb(0,0,0)" stroke="none" x="0" y="0" width="81" height="14" fill-opacity="0"/></g></g><g><g><rect fill="rgb(0,0,0)" stroke="none" x="17.484375" y="0" width="47" height="14" fill-opacity="0"/></g><text fill="rgb(0, 255, 0)" stroke="none" font-family="Arial" font-size="12px" font-style="normal" font-weight="normal" text-decoration="" line-height="14px" x="17" y="12">pos</text><text fill="rgb(0, 255, 0)" stroke="none" font-family="Arial" font-size="12px" font-style="normal" font-weight="normal" text-decoration="" line-height="14px" x="37" y="12">:</text><text fill="rgb(0, 255, 0)" stroke="none" font-family="Arial" font-size="12px" font-style="normal" font-weight="normal" text-decoration="" line-height="14px" x="44" y="12">100</text></g><g><g><rect fill="rgb(0,0,0)" stroke="none" x="0" y="14" width="81" height="14" fill-opacity="0"/></g></g><g><g><rect fill="rgb(0,0,0)" stroke="none" x="7.484375" y="14" width="67" height="14" fill-opacity="0"/></g><text fill="rgb(0, 255, 0)" stroke="none" font-family="Arial" font-size="12px" font-style="normal" font-weight="normal" text-decoration="" line-height="14px" x="7" y="26">DELETE</text><text fill="rgb(0, 255, 0)" stroke="none" font-family="Arial" font-size="12px" font-style="normal" font-weight="normal" text-decoration="" line-height="14px" x="58" y="26">btc</text></g></g><g transform="translate(0,0) matrix(1,0,0,1,90,270)"><g><g transform="translate(0,0) scale(1,0.75)"><g><path fill="none" stroke="none" d="M 10 0 L 90 0 Q 100 0 100 10 L 100 90 Q 100 100 90 100 L 10 100 Q 0 100 0 90 L 0 10 Q 0 0 10 0 Z"/><g transform="scale(1,1.3333333333333333)"><path fill="#FFFFFF" stroke="none" d="M 10 0 L 90 0 Q 100 0 100 10 L 100 65 Q 100 75 90 75 L 10 75 Q 0 75 0 65 L 0 10 Q 0 0 10 0 Z"/><path fill="none" stroke="#333333" d="M 10 0 M 10 0 L 90 0 Q 100 0 100 10 L 100 65 Q 100 75 90 75 L 10 75 Q 0 75 0 65 L 0 10 Q 0 0 10 0 Z" stroke-miterlimit="10" stroke-width="2"/></g></g></g></g></g><g transform="matrix(1,0,0,1,100,294)"><g><g><rect fill="rgb(0,0,0)" stroke="none" x="0" y="0" width="81" height="28" fill-opacity="0"/></g></g><g><g><rect fill="rgb(0,0,0)" stroke="none" x="0" y="0" width="81" height="14" fill-opacity="0"/></g></g><g><g><rect fill="rgb(0,0,0)" stroke="none" x="17.484375" y="0" width="47" height="14" fill-opacity="0"/></g></g><g><g><rect fill="rgb(0,0,0)" stroke="none" x="17.484375" y="0" width="47" height="14" fill-opacity="0"/></g><text fill="rgb(0, 0, 0)" stroke="none" font-family="Arial" font-size="12px" font-style="normal" font-weight="normal" text-decoration="" line-height="14px" x="17" y="12">pos</text><text fill="rgb(0, 0, 0)" stroke="none" font-family="Arial" font-size="12px" font-style="normal" font-weight="normal" text-decoration="" line-height="14px" x="37" y="12">:</text><text fill="rgb(0, 0, 0)" stroke="none" font-family="Arial" font-size="12px" font-style="normal" font-weight="normal" text-decoration="" line-height="14px" x="44" y="12">300</text></g><g><g><rect fill="rgb(0,0,0)" stroke="none" x="0" y="14" width="81" height="14" fill-opacity="0"/></g></g><g><g><rect fill="rgb(0,0,0)" stroke="none" x="4.265625" y="14" width="73" height="14" fill-opacity="0"/></g></g><g><g><rect fill="rgb(0,0,0)" stroke="none" x="4.265625" y="14" width="73" height="14" fill-opacity="0"/></g><text fill="rgb(0, 0, 0)" stroke="none" font-family="Arial" font-size="12px" font-style="normal" font-weight="normal" text-decoration="" line-height="14px" x="4" y="26">INSERT</text><text fill="rgb(0, 0, 0)" stroke="none" font-family="Arial" font-size="12px" font-style="normal" font-weight="normal" text-decoration="" line-height="14px" x="51" y="26">cash</text></g></g><g transform="translate(0,0) matrix(1,0,0,1,90,30)"><g><g transform="translate(0,0) scale(1,0.75)"><g><path fill="#434343" stroke="none" d="M 0 0 L 100 0 Q 100 0 100 0 L 100 100 Q 100 100 100 100 L 0 100 Q 0 100 0 100 L 0 0 Q 0 0 0 0 Z"/><g transform="scale(1,1.3333333333333333)"><path fill="none" stroke="none" d="M 0 0 L 100 0 Q 100 0 100 0 L 100 75 Q 100 75 100 75 L 0 75 Q 0 75 0 75 L 0 0 Q 0 0 0 0 Z"/><path fill="none" stroke="#333333" d="M 0 0 M 0 0 L 100 0 Q 100 0 100 0 L 100 75 Q 100 75 100 75 L 0 75 Q 0 75 0 75 L 0 0 Q 0 0 0 0 Z" stroke-miterlimit="10" stroke-width="2"/></g></g></g></g></g><g transform="matrix(1,0,0,1,100,10)"><g><g><rect fill="rgb(0,0,0)" stroke="none" x="0" y="0" width="81" height="14" fill-opacity="0"/></g></g><g><g><rect fill="rgb(0,0,0)" stroke="none" x="0" y="0" width="81" height="14" fill-opacity="0"/></g></g><g><g><rect fill="rgb(0,0,0)" stroke="none" x="1.8125" y="0" width="77" height="14" fill-opacity="0"/></g></g><g><g><rect fill="rgb(0,0,0)" stroke="none" x="1.8125" y="0" width="77" height="14" fill-opacity="0"/></g><text fill="rgb(0, 0, 0)" stroke="none" font-family="Arial" font-size="12px" font-style="normal" font-weight="normal" text-decoration="" line-height="14px" x="2" y="12">Relay</text><text fill="rgb(0, 0, 0)" stroke="none" font-family="Arial" font-size="12px" font-style="normal" font-weight="normal" text-decoration="" line-height="14px" x="36" y="12">Log</text><text fill="rgb(0, 0, 0)" stroke="none" font-family="Arial" font-size="12px" font-style="normal" font-weight="normal" text-decoration="" line-height="14px" x="59" y="12">Info</text></g></g><g transform="matrix(1,0,0,1,100,61)"><g><g><rect fill="rgb(0,0,0)" stroke="none" x="0" y="0" width="80" height="14" fill-opacity="0"/></g></g><g><g><rect fill="rgb(0,0,0)" stroke="none" x="0" y="0" width="80" height="14" fill-opacity="0"/></g></g><g><g><rect fill="rgb(0,0,0)" stroke="none" x="16.984375" y="0" width="46" height="14" fill-opacity="0"/></g></g><g><g><rect fill="rgb(0,0,0)" stroke="none" x="16.984375" y="0" width="46" height="14" fill-opacity="0"/></g><text fill="rgb(0, 255, 255)" stroke="none" font-family="Arial" font-size="12px" font-style="normal" font-weight="normal" text-decoration="" line-height="14px" x="17" y="12">pos</text><text fill="rgb(0, 255, 255)" stroke="none" font-family="Arial" font-size="12px" font-style="normal" font-weight="normal" text-decoration="" line-height="14px" x="36" y="12">:</text><text fill="rgb(0, 255, 255)" stroke="none" font-family="Arial" font-size="12px" font-style="normal" font-weight="normal" text-decoration="" line-height="14px" x="43" y="12">100</text></g></g><g transform="translate(0,0) matrix(1,0,0,1,231,80)"><g transform="translate(4,4) scale(1.0072463768115942,1.02)"><g><g transform="translate(0,0) scale(1.38,0.5)"><g><g transform="scale(0.7246376811594204,2)"><path fill="#000000" stroke="none" d="M 0 15 L 113 15 L 113 0 L 138 25 L 113 50 L 113 35 L 0 35 L 0 15 Z" opacity="0.294117647"/><path fill="none" stroke="rgb(0,0,0)" d="M 0 15 M 0 15 L 113 15 L 113 0 L 138 25 L 113 50 L 113 35 L 0 35 L 0 15 Z" stroke-opacity="0" stroke-miterlimit="10" stroke-width="2" opacity="0.294117647"/></g></g></g></g></g><g><g transform="translate(0,0) scale(1.38,0.5)"><g><g transform="scale(0.7246376811594204,2)"><path fill="#f4cccc" stroke="none" d="M 0 15 L 113 15 L 113 0 L 138 25 L 113 50 L 113 35 L 0 35 L 0 15 Z"/><path fill="none" stroke="#ff0000" d="M 0 15 M 0 15 L 113 15 L 113 0 L 138 25 L 113 50 L 113 35 L 0 35 L 0 15 Z" stroke-miterlimit="10" stroke-width="2"/></g></g></g></g></g><g transform="matrix(1,0,0,1,242,98)"><g><g><rect fill="rgb(0,0,0)" stroke="none" x="0" y="0" width="117" height="14" fill-opacity="0"/></g></g><g><g><rect fill="rgb(0,0,0)" stroke="none" x="0" y="0" width="117" height="14" fill-opacity="0"/></g></g><g><g><rect fill="rgb(0,0,0)" stroke="none" x="35.40625" y="0" width="47" height="14" fill-opacity="0"/></g></g><g><g><rect fill="rgb(0,0,0)" stroke="none" x="35.40625" y="0" width="47" height="14" fill-opacity="0"/></g><text fill="rgb(255, 0, 0)" stroke="none" font-family="Arial" font-size="12px" font-style="italic" font-weight="700" text-decoration="" line-height="14px" x="35" y="12">CRASH</text><text fill="rgb(255, 0, 0)" stroke="none" font-family="Arial" font-size="12px" font-style="italic" font-weight="700" text-decoration="" line-height="14px" x="78" y="12">!</text></g></g><g transform="translate(0,0) matrix(1,0,0,1,329,180)"><g><g transform="translate(0,0) scale(0.8,0.3)"><g><path fill="rgb(0,0,0)" stroke="none" d="M 0 0 L 100 0 Q 100 0 100 0 L 100 100 Q 100 100 100 100 L 0 100 Q 0 100 0 100 L 0 0 Q 0 0 0 0 Z" fill-opacity="0"/><g transform="scale(1.25,3.3333333333333335)"><path fill="none" stroke="rbga(0,0,0,0)" d="M 0 0 L 80 0 Q 80 0 80 0 L 80 30 Q 80 30 80 30 L 0 30 Q 0 30 0 30 L 0 0 Q 0 0 0 0 Z" stroke-miterlimit="10" stroke-width="2"/></g></g></g></g></g><g transform="translate(0,0) matrix(1,0,0,1,328,180)"><g><g transform="translate(0,0) scale(0.9991119005328597,0.5769230769230769)"><g><g transform="scale(1.000888888888889,1.7333333333333334)"><path fill="#FFFFFF" stroke="#000000" d="M 27 0 L 2.0781527531083483 0 L 22.056394316163413 14.999999999999998 L 2.0781527531083483 29.999999999999996 L 27 29.999999999999996" stroke-miterlimit="3" stroke-width="2"/></g></g></g></g></g><g transform="translate(0,0) matrix(1,0,0,1,355,180)"><g><g transform="translate(0,0) scale(0.58,0.5769230769230769)"><g><g><path fill="#FFFFFF" stroke="rgb(0,0,0)" d="M 0 0 L 50 0 Q 50 0 50 0 L 50 52 Q 50 52 50 52 L 0 52 Q 0 52 0 52 L 0 0 Q 0 0 0 0 Z" stroke-opacity="0" stroke-miterlimit="10"/></g><g><g transform="scale(1.7241379310344829,1.7333333333333334)"><path fill="none" stroke="#000000" d="M 0 0 L 28.999999999999996 0" stroke-miterlimit="3" stroke-width="2"/></g></g><g><g transform="scale(1.7241379310344829,1.7333333333333334)"><path fill="none" stroke="#000000" d="M 28.999999999999996 29.999999999999996 L 0 29.999999999999996" stroke-miterlimit="3" stroke-width="2"/></g></g></g></g></g></g><g transform="matrix(1,0,0,1,357,188)"><g><g><rect fill="rgb(0,0,0)" stroke="none" x="0" y="0" width="26" height="20" fill-opacity="0"/></g></g><g><g><rect fill="rgb(0,0,0)" stroke="none" x="0" y="0" width="26" height="14" fill-opacity="0"/></g></g><g><g><rect fill="rgb(0,0,0)" stroke="none" x="6.671875" y="0" width="12" height="14" fill-opacity="0"/></g><text fill="rgb(0, 0, 0)" stroke="none" font-family="Arial" font-size="12px" font-style="normal" font-weight="normal" text-decoration="" line-height="14px" x="6.671875" y="12">IO</text></g></g><g transform="translate(0,0) matrix(1,0,0,1,384,180)"><g><g transform="translate(0,0) scale(1,0.5769230769230769)"><g><g transform="scale(1,1.7333333333333334)"><path fill="#FFFFFF" stroke="#000000" d="M 0 29.999999999999996 L 5.3 29.999999999999996 L 25 14.999999999999998 L 5.3 0 L 0 0" stroke-miterlimit="3" stroke-width="2"/></g></g></g></g></g><g transform="translate(0,0) matrix(1,0,0,1,408,120)"><g><g transform="translate(0,0) scale(1,0.75)"><g><path fill="none" stroke="none" d="M 10 0 L 90 0 Q 100 0 100 10 L 100 90 Q 100 100 90 100 L 10 100 Q 0 100 0 90 L 0 10 Q 0 0 10 0 Z"/><g transform="scale(1,1.3333333333333333)"><path fill="#434343" stroke="none" d="M 10 0 L 90 0 Q 100 0 100 10 L 100 65 Q 100 75 90 75 L 10 75 Q 0 75 0 65 L 0 10 Q 0 0 10 0 Z"/><path fill="none" stroke="#333333" d="M 10 0 M 10 0 L 90 0 Q 100 0 100 10 L 100 65 Q 100 75 90 75 L 10 75 Q 0 75 0 65 L 0 10 Q 0 0 10 0 Z" stroke-miterlimit="10" stroke-width="2"/></g></g></g></g></g><g transform="matrix(1,0,0,1,418,144)"><g><g><rect fill="rgb(0,0,0)" stroke="none" x="0" y="0" width="81" height="28" fill-opacity="0"/></g></g><g><g><rect fill="rgb(0,0,0)" stroke="none" x="0" y="0" width="81" height="14" fill-opacity="0"/></g></g><g><g><rect fill="rgb(0,0,0)" stroke="none" x="24.15625" y="0" width="33" height="14" fill-opacity="0"/></g><text fill="rgb(0, 255, 255)" stroke="none" font-family="Arial" font-size="12px" font-style="normal" font-weight="normal" text-decoration="" line-height="14px" x="24" y="12">pos</text><text fill="rgb(0, 255, 255)" stroke="none" font-family="Arial" font-size="12px" font-style="normal" font-weight="normal" text-decoration="" line-height="14px" x="44" y="12">:</text><text fill="rgb(0, 255, 255)" stroke="none" font-family="Arial" font-size="12px" font-style="normal" font-weight="normal" text-decoration="" line-height="14px" x="50" y="12">0</text></g><g><g><rect fill="rgb(0,0,0)" stroke="none" x="0" y="14" width="81" height="14" fill-opacity="0"/></g></g><g><g><rect fill="rgb(0,0,0)" stroke="none" x="6.59375" y="14" width="67" height="14" fill-opacity="0"/></g><text fill="rgb(0, 255, 255)" stroke="none" font-family="Arial" font-size="12px" font-style="normal" font-weight="normal" text-decoration="" line-height="14px" x="7" y="26">UPDATE</text><text fill="rgb(0, 255, 255)" stroke="none" font-family="Arial" font-size="12px" font-style="normal" font-weight="normal" text-decoration="" line-height="14px" x="58" y="26">foo</text></g></g><g transform="translate(0,0) matrix(1,0,0,1,408,195)"><g><g transform="translate(0,0) scale(1,0.75)"><g><path fill="none" stroke="none" d="M 10 0 L 90 0 Q 100 0 100 10 L 100 90 Q 100 100 90 100 L 10 100 Q 0 100 0 90 L 0 10 Q 0 0 10 0 Z"/><g transform="scale(1,1.3333333333333333)"><path fill="#ffffff" stroke="none" d="M 10 0 L 90 0 Q 100 0 100 10 L 100 65 Q 100 75 90 75 L 10 75 Q 0 75 0 65 L 0 10 Q 0 0 10 0 Z"/><path fill="none" stroke="#333333" d="M 10 0 M 10 0 L 12 0 M 12 0 M 14 0 L 16 0 M 16 0 M 18 0 L 20 0 M 20 0 M 22 0 L 24 0 M 24 0 M 26 0 L 28 0 M 28 0 M 30 0 L 32 0 M 32 0 M 34 0 L 36 0 M 36 0 M 38 0 L 40 0 M 40 0 M 42 0 L 44 0 M 44 0 M 46 0 L 48 0 M 48 0 M 50 0 L 52 0 M 52 0 M 54 0 L 56 0 M 56 0 M 58 0 L 60 0 M 60 0 M 62 0 L 64 0 M 64 0 M 66 0 L 68 0 M 68 0 M 70 0 L 72 0 M 72 0 M 74 0 L 76 0 M 76 0 M 78 0 L 80 0 M 80 0 M 82 0 L 84 0 M 84 0 M 86 0 L 88 0 M 88 0 M 90 0 L 90 0 Q 91.05336727381396 0 91.9957762862737 0.11095826135422505 M 91.9957762862737 0.11095826135422505 M 93.95625668943995 0.49544010981167697 Q 94.9660843712156 0.7845679072770562 95.8071835192862 1.2424242384474615 M 95.8071835192862 1.2424242384474615 M 97.4172158623328 2.4185642705702604 Q 98.1282715960539 3.1066434296762955 98.64356948494238 3.990480433614975 M 98.64356948494238 3.990480433614975 M 99.43815512418641 5.82119143640853 Q 99.71956938865662 6.727015463314162 99.86003017707594 7.7737929662706975 M 99.86003017707594 7.7737929662706975 M 99.9986356428502 9.767752957617544 Q 100 9.88319430023388 100 10 L 100 11.767747598597209 M 100 11.767747598597209 M 100 13.767747598597209 L 100 15.767747598597209 M 100 15.767747598597209 M 100 17.76774759859721 L 100 19.76774759859721 M 100 19.76774759859721 M 100 21.76774759859721 L 100 23.76774759859721 M 100 23.76774759859721 M 100 25.76774759859721 L 100 27.76774759859721 M 100 27.76774759859721 M 100 29.76774759859721 L 100 31.76774759859721 M 100 31.76774759859721 M 100 33.76774759859721 L 100 35.76774759859721 M 100 35.76774759859721 M 100 37.76774759859721 L 100 39.76774759859721 M 100 39.76774759859721 M 100 41.76774759859721 L 100 43.76774759859721 M 100 43.76774759859721 M 100 45.76774759859721 L 100 47.76774759859721 M 100 47.76774759859721 M 100 49.76774759859721 L 100 51.76774759859721 M 100 51.76774759859721 M 100 53.76774759859721 L 100 55.76774759859721 M 100 55.76774759859721 M 100 57.76774759859721 L 100 59.76774759859721 M 100 59.76774759859721 M 100 61.76774759859721 L 100 63.76774759859721 M 100 63.76774759859721 M 99.98467811622432 65.76754167459659 Q 99.94173589223489 66.82165457675744 99.7784406732642 67.75541448393703 M 99.7784406732642 67.75541448393703 M 99.26556478274709 69.68565783454211 Q 98.90183538518801 70.66408029335614 98.35796882707234 71.46236559161358 M 98.35796882707234 71.46236559161358 M 97.01871187610915 72.93894653272868 Q 96.26822421581001 73.56294886078196 95.32881428270278 73.99802891602714 M 95.32881428270278 73.99802891602714 M 93.43802586118375 74.63922845706072 Q 92.5153564488516 74.85557253076071 91.46295186438317 74.9421814323244 M 91.46295186438317 74.9421814323244 M 89.46450480280592 75 L 87.46450480280592 75 M 87.46450480280592 75 M 85.46450480280592 75 L 83.46450480280592 75 M 83.46450480280592 75 M 81.46450480280592 75 L 79.46450480280592 75 M 79.46450480280592 75 M 77.46450480280592 75 L 75.46450480280592 75 M 75.46450480280592 75 M 73.46450480280592 75 L 71.46450480280592 75 M 71.46450480280592 75 M 69.46450480280592 75 L 67.46450480280592 75 M 67.46450480280592 75 M 65.46450480280592 75 L 63.46450480280592 75 M 63.46450480280592 75 M 61.46450480280592 75 L 59.46450480280592 75 M 59.46450480280592 75 M 57.46450480280592 75 L 55.46450480280592 75 M 55.46450480280592 75 M 53.46450480280592 75 L 51.46450480280592 75 M 51.46450480280592 75 M 49.46450480280592 75 L 47.46450480280592 75 M 47.46450480280592 75 M 45.46450480280592 75 L 43.46450480280592 75 M 43.46450480280592 75 M 41.46450480280592 75 L 39.46450480280592 75 M 39.46450480280592 75 M 37.46450480280592 75 L 35.46450480280592 75 M 35.46450480280592 75 M 33.46450480280592 75 L 31.46450480280592 75 M 31.46450480280592 75 M 29.46450480280592 75 L 27.46450480280592 75 M 27.46450480280592 75 M 25.46450480280592 75 L 23.46450480280592 75 M 23.46450480280592 75 M 21.46450480280592 75 L 19.46450480280592 75 M 19.46450480280592 75 M 17.46450480280592 75 L 15.46450480280592 75 M 15.46450480280592 75 M 13.46450480280592 75 L 11.46450480280592 75 M 11.46450480280592 75 M 9.464572814597895 74.99263439979738 Q 8.410438001923788 74.96322746769918 7.473709460516102 74.81641426433457 M 7.473709460516102 74.81641426433457 M 5.533004500608296 74.34382916870224 Q 4.543873170548776 74.00319994346296 3.7315681539321144 73.48574440478082 M 3.7315681539321144 73.48574440478082 M 2.212418017901081 72.19485154962187 Q 1.5617600461923231 71.46220065144335 1.1024564174344476 70.53819541031395 M 1.1024564174344476 70.53819541031395 M 0.4160955651623069 68.66358856556305 Q 0.18081644468371746 67.74544936766434 0.07857470592195963 66.69427278804879 M 0.07857470592195963 66.69427278804879 M 0 64.69675720420834 L 0 62.69675720420834 M 0 62.69675720420834 M 0 60.69675720420834 L 0 58.69675720420834 M 0 58.69675720420834 M 0 56.69675720420834 L 0 54.69675720420834 M 0 54.69675720420834 M 0 52.69675720420834 L 0 50.69675720420834 M 0 50.69675720420834 M 0 48.69675720420834 L 0 46.69675720420834 M 0 46.69675720420834 M 0 44.69675720420834 L 0 42.69675720420834 M 0 42.69675720420834 M 0 40.69675720420834 L 0 38.69675720420834 M 0 38.69675720420834 M 0 36.69675720420834 L 0 34.69675720420834 M 0 34.69675720420834 M 0 32.69675720420834 L 0 30.69675720420834 M 0 30.69675720420834 M 0 28.69675720420834 L 0 26.69675720420834 M 0 26.69675720420834 M 0 24.69675720420834 L 0 22.69675720420834 M 0 22.69675720420834 M 0 20.69675720420834 L 0 18.69675720420834 M 0 18.69675720420834 M 0 16.69675720420834 L 0 14.696757204208339 M 0 14.696757204208339 M 0 12.696757204208339 L 0 10.696757204208339 M 0 10.696757204208339 M 0.0453984888831239 8.697830473781488 Q 0.12147719696416828 7.644783123237484 0.3250484706718264 6.719228338320093 M 0.3250484706718264 6.719228338320093 M 0.9355744818870353 4.818142073148755 Q 1.3539284709072108 3.8687523387643563 1.959354749218647 3.1064348936712185 M 1.959354749218647 3.1064348936712185 M 3.4053591200775095 1.7342681340942199 Q 4.193350004708302 1.1719295840952062 5.163679847541859 0.7919299922989574 M 5.163679847541859 0.7919299922989574 M 7.085913622142128 0.250339830741815 Q 8.01741162322674 0.07525481585529847 9.07136222143493 0.02262239809235809 M 9.07136222143493 0.02262239809235809 Z" stroke-miterlimit="10" stroke-width="2"/></g></g></g></g></g><g transform="matrix(1,0,0,1,418,219)"><g><g><rect fill="rgb(0,0,0)" stroke="none" x="0" y="0" width="81" height="28" fill-opacity="0"/></g></g><g><g><rect fill="rgb(0,0,0)" stroke="none" x="0" y="0" width="81" height="14" fill-opacity="0"/></g></g><g><g><rect fill="rgb(0,0,0)" stroke="none" x="17.484375" y="0" width="47" height="14" fill-opacity="0"/></g><text fill="rgb(204, 204, 204)" stroke="none" font-family="Arial" font-size="12px" font-style="normal" font-weight="normal" text-decoration="" line-height="14px" x="17" y="12">pos</text><text fill="rgb(204, 204, 204)" stroke="none" font-family="Arial" font-size="12px" font-style="normal" font-weight="normal" text-decoration="" line-height="14px" x="37" y="12">:</text><text fill="rgb(204, 204, 204)" stroke="none" font-family="Arial" font-size="12px" font-style="normal" font-weight="normal" text-decoration="" line-height="14px" x="44" y="12">100</text></g><g><g><rect fill="rgb(0,0,0)" stroke="none" x="0" y="14" width="81" height="14" fill-opacity="0"/></g></g><g><g><rect fill="rgb(0,0,0)" stroke="none" x="7.484375" y="14" width="67" height="14" fill-opacity="0"/></g><text fill="rgb(204, 204, 204)" stroke="none" font-family="Arial" font-size="12px" font-style="normal" font-weight="normal" text-decoration="" line-height="14px" x="7" y="26">DELETE</text><text fill="rgb(204, 204, 204)" stroke="none" font-family="Arial" font-size="12px" font-style="normal" font-weight="normal" text-decoration="" line-height="14px" x="58" y="26">btc</text></g></g><g transform="translate(0,0) matrix(1,0,0,1,408,270)"><g><g transform="translate(0,0) scale(1,0.75)"><g><path fill="none" stroke="none" d="M 10 0 L 90 0 Q 100 0 100 10 L 100 90 Q 100 100 90 100 L 10 100 Q 0 100 0 90 L 0 10 Q 0 0 10 0 Z"/><g transform="scale(1,1.3333333333333333)"><path fill="#FFFFFF" stroke="none" d="M 10 0 L 90 0 Q 100 0 100 10 L 100 65 Q 100 75 90 75 L 10 75 Q 0 75 0 65 L 0 10 Q 0 0 10 0 Z"/><path fill="none" stroke="#333333" d="M 10 0 M 10 0 L 12 0 M 12 0 M 14 0 L 16 0 M 16 0 M 18 0 L 20 0 M 20 0 M 22 0 L 24 0 M 24 0 M 26 0 L 28 0 M 28 0 M 30 0 L 32 0 M 32 0 M 34 0 L 36 0 M 36 0 M 38 0 L 40 0 M 40 0 M 42 0 L 44 0 M 44 0 M 46 0 L 48 0 M 48 0 M 50 0 L 52 0 M 52 0 M 54 0 L 56 0 M 56 0 M 58 0 L 60 0 M 60 0 M 62 0 L 64 0 M 64 0 M 66 0 L 68 0 M 68 0 M 70 0 L 72 0 M 72 0 M 74 0 L 76 0 M 76 0 M 78 0 L 80 0 M 80 0 M 82 0 L 84 0 M 84 0 M 86 0 L 88 0 M 88 0 M 90 0 L 90 0 Q 91.05336727381396 0 91.9957762862737 0.11095826135422505 M 91.9957762862737 0.11095826135422505 M 93.95625668943995 0.49544010981167697 Q 94.9660843712156 0.7845679072770562 95.8071835192862 1.2424242384474615 M 95.8071835192862 1.2424242384474615 M 97.4172158623328 2.4185642705702604 Q 98.1282715960539 3.1066434296762955 98.64356948494238 3.990480433614975 M 98.64356948494238 3.990480433614975 M 99.43815512418641 5.82119143640853 Q 99.71956938865662 6.727015463314162 99.86003017707594 7.7737929662706975 M 99.86003017707594 7.7737929662706975 M 99.9986356428502 9.767752957617544 Q 100 9.88319430023388 100 10 L 100 11.767747598597209 M 100 11.767747598597209 M 100 13.767747598597209 L 100 15.767747598597209 M 100 15.767747598597209 M 100 17.76774759859721 L 100 19.76774759859721 M 100 19.76774759859721 M 100 21.76774759859721 L 100 23.76774759859721 M 100 23.76774759859721 M 100 25.76774759859721 L 100 27.76774759859721 M 100 27.76774759859721 M 100 29.76774759859721 L 100 31.76774759859721 M 100 31.76774759859721 M 100 33.76774759859721 L 100 35.76774759859721 M 100 35.76774759859721 M 100 37.76774759859721 L 100 39.76774759859721 M 100 39.76774759859721 M 100 41.76774759859721 L 100 43.76774759859721 M 100 43.76774759859721 M 100 45.76774759859721 L 100 47.76774759859721 M 100 47.76774759859721 M 100 49.76774759859721 L 100 51.76774759859721 M 100 51.76774759859721 M 100 53.76774759859721 L 100 55.76774759859721 M 100 55.76774759859721 M 100 57.76774759859721 L 100 59.76774759859721 M 100 59.76774759859721 M 100 61.76774759859721 L 100 63.76774759859721 M 100 63.76774759859721 M 99.98467811622432 65.76754167459659 Q 99.94173589223489 66.82165457675744 99.7784406732642 67.75541448393703 M 99.7784406732642 67.75541448393703 M 99.26556478274709 69.68565783454211 Q 98.90183538518801 70.66408029335614 98.35796882707234 71.46236559161358 M 98.35796882707234 71.46236559161358 M 97.01871187610915 72.93894653272868 Q 96.26822421581001 73.56294886078196 95.32881428270278 73.99802891602714 M 95.32881428270278 73.99802891602714 M 93.43802586118375 74.63922845706072 Q 92.5153564488516 74.85557253076071 91.46295186438317 74.9421814323244 M 91.46295186438317 74.9421814323244 M 89.46450480280592 75 L 87.46450480280592 75 M 87.46450480280592 75 M 85.46450480280592 75 L 83.46450480280592 75 M 83.46450480280592 75 M 81.46450480280592 75 L 79.46450480280592 75 M 79.46450480280592 75 M 77.46450480280592 75 L 75.46450480280592 75 M 75.46450480280592 75 M 73.46450480280592 75 L 71.46450480280592 75 M 71.46450480280592 75 M 69.46450480280592 75 L 67.46450480280592 75 M 67.46450480280592 75 M 65.46450480280592 75 L 63.46450480280592 75 M 63.46450480280592 75 M 61.46450480280592 75 L 59.46450480280592 75 M 59.46450480280592 75 M 57.46450480280592 75 L 55.46450480280592 75 M 55.46450480280592 75 M 53.46450480280592 75 L 51.46450480280592 75 M 51.46450480280592 75 M 49.46450480280592 75 L 47.46450480280592 75 M 47.46450480280592 75 M 45.46450480280592 75 L 43.46450480280592 75 M 43.46450480280592 75 M 41.46450480280592 75 L 39.46450480280592 75 M 39.46450480280592 75 M 37.46450480280592 75 L 35.46450480280592 75 M 35.46450480280592 75 M 33.46450480280592 75 L 31.46450480280592 75 M 31.46450480280592 75 M 29.46450480280592 75 L 27.46450480280592 75 M 27.46450480280592 75 M 25.46450480280592 75 L 23.46450480280592 75 M 23.46450480280592 75 M 21.46450480280592 75 L 19.46450480280592 75 M 19.46450480280592 75 M 17.46450480280592 75 L 15.46450480280592 75 M 15.46450480280592 75 M 13.46450480280592 75 L 11.46450480280592 75 M 11.46450480280592 75 M 9.464572814597895 74.99263439979738 Q 8.410438001923788 74.96322746769918 7.473709460516102 74.81641426433457 M 7.473709460516102 74.81641426433457 M 5.533004500608296 74.34382916870224 Q 4.543873170548776 74.00319994346296 3.7315681539321144 73.48574440478082 M 3.7315681539321144 73.48574440478082 M 2.212418017901081 72.19485154962187 Q 1.5617600461923231 71.46220065144335 1.1024564174344476 70.53819541031395 M 1.1024564174344476 70.53819541031395 M 0.4160955651623069 68.66358856556305 Q 0.18081644468371746 67.74544936766434 0.07857470592195963 66.69427278804879 M 0.07857470592195963 66.69427278804879 M 0 64.69675720420834 L 0 62.69675720420834 M 0 62.69675720420834 M 0 60.69675720420834 L 0 58.69675720420834 M 0 58.69675720420834 M 0 56.69675720420834 L 0 54.69675720420834 M 0 54.69675720420834 M 0 52.69675720420834 L 0 50.69675720420834 M 0 50.69675720420834 M 0 48.69675720420834 L 0 46.69675720420834 M 0 46.69675720420834 M 0 44.69675720420834 L 0 42.69675720420834 M 0 42.69675720420834 M 0 40.69675720420834 L 0 38.69675720420834 M 0 38.69675720420834 M 0 36.69675720420834 L 0 34.69675720420834 M 0 34.69675720420834 M 0 32.69675720420834 L 0 30.69675720420834 M 0 30.69675720420834 M 0 28.69675720420834 L 0 26.69675720420834 M 0 26.69675720420834 M 0 24.69675720420834 L 0 22.69675720420834 M 0 22.69675720420834 M 0 20.69675720420834 L 0 18.69675720420834 M 0 18.69675720420834 M 0 16.69675720420834 L 0 14.696757204208339 M 0 14.696757204208339 M 0 12.696757204208339 L 0 10.696757204208339 M 0 10.696757204208339 M 0.0453984888831239 8.697830473781488 Q 0.12147719696416828 7.644783123237484 0.3250484706718264 6.719228338320093 M 0.3250484706718264 6.719228338320093 M 0.9355744818870353 4.818142073148755 Q 1.3539284709072108 3.8687523387643563 1.959354749218647 3.1064348936712185 M 1.959354749218647 3.1064348936712185 M 3.4053591200775095 1.7342681340942199 Q 4.193350004708302 1.1719295840952062 5.163679847541859 0.7919299922989574 M 5.163679847541859 0.7919299922989574 M 7.085913622142128 0.250339830741815 Q 8.01741162322674 0.07525481585529847 9.07136222143493 0.02262239809235809 M 9.07136222143493 0.02262239809235809 Z" stroke-miterlimit="10" stroke-width="2"/></g></g></g></g></g><g transform="matrix(1,0,0,1,418,294)"><g><g><rect fill="rgb(0,0,0)" stroke="none" x="0" y="0" width="81" height="28" fill-opacity="0"/></g></g><g><g><rect fill="rgb(0,0,0)" stroke="none" x="0" y="0" width="81" height="14" fill-opacity="0"/></g></g><g><g><rect fill="rgb(0,0,0)" stroke="none" x="17.484375" y="0" width="47" height="14" fill-opacity="0"/></g></g><g><g><rect fill="rgb(0,0,0)" stroke="none" x="17.484375" y="0" width="47" height="14" fill-opacity="0"/></g><text fill="rgb(204, 204, 204)" stroke="none" font-family="Arial" font-size="12px" font-style="normal" font-weight="normal" text-decoration="" line-height="14px" x="17" y="12">pos</text><text fill="rgb(204, 204, 204)" stroke="none" font-family="Arial" font-size="12px" font-style="normal" font-weight="normal" text-decoration="" line-height="14px" x="37" y="12">:</text><text fill="rgb(204, 204, 204)" stroke="none" font-family="Arial" font-size="12px" font-style="normal" font-weight="normal" text-decoration="" line-height="14px" x="44" y="12">300</text></g><g><g><rect fill="rgb(0,0,0)" stroke="none" x="0" y="14" width="81" height="14" fill-opacity="0"/></g></g><g><g><rect fill="rgb(0,0,0)" stroke="none" x="4.265625" y="14" width="73" height="14" fill-opacity="0"/></g></g><g><g><rect fill="rgb(0,0,0)" stroke="none" x="4.265625" y="14" width="73" height="14" fill-opacity="0"/></g><text fill="rgb(204, 204, 204)" stroke="none" font-family="Arial" font-size="12px" font-style="normal" font-weight="normal" text-decoration="" line-height="14px" x="4" y="26">INSERT</text><text fill="rgb(204, 204, 204)" stroke="none" font-family="Arial" font-size="12px" font-style="normal" font-weight="normal" text-decoration="" line-height="14px" x="51" y="26">cash</text></g></g><g transform="translate(0,0) matrix(1,0,0,1,408,30)"><g><g transform="translate(0,0) scale(1,0.75)"><g><path fill="#434343" stroke="none" d="M 0 0 L 100 0 Q 100 0 100 0 L 100 100 Q 100 100 100 100 L 0 100 Q 0 100 0 100 L 0 0 Q 0 0 0 0 Z"/><g transform="scale(1,1.3333333333333333)"><path fill="none" stroke="none" d="M 0 0 L 100 0 Q 100 0 100 0 L 100 75 Q 100 75 100 75 L 0 75 Q 0 75 0 75 L 0 0 Q 0 0 0 0 Z"/><path fill="none" stroke="#333333" d="M 0 0 M 0 0 L 100 0 Q 100 0 100 0 L 100 75 Q 100 75 100 75 L 0 75 Q 0 75 0 75 L 0 0 Q 0 0 0 0 Z" stroke-miterlimit="10" stroke-width="2"/></g></g></g></g></g><g transform="matrix(1,0,0,1,418,10)"><g><g><rect fill="rgb(0,0,0)" stroke="none" x="0" y="0" width="81" height="14" fill-opacity="0"/></g></g><g><g><rect fill="rgb(0,0,0)" stroke="none" x="0" y="0" width="81" height="14" fill-opacity="0"/></g></g><g><g><rect fill="rgb(0,0,0)" stroke="none" x="1.8125" y="0" width="77" height="14" fill-opacity="0"/></g></g><g><g><rect fill="rgb(0,0,0)" stroke="none" x="1.8125" y="0" width="77" height="14" fill-opacity="0"/></g><text fill="rgb(0, 0, 0)" stroke="none" font-family="Arial" font-size="12px" font-style="normal" font-weight="normal" text-decoration="" line-height="14px" x="2" y="12">Relay</text><text fill="rgb(0, 0, 0)" stroke="none" font-family="Arial" font-size="12px" font-style="normal" font-weight="normal" text-decoration="" line-height="14px" x="36" y="12">Log</text><text fill="rgb(0, 0, 0)" stroke="none" font-family="Arial" font-size="12px" font-style="normal" font-weight="normal" text-decoration="" line-height="14px" x="59" y="12">Info</text></g></g><g transform="matrix(1,0,0,1,418,61)"><g><g><rect fill="rgb(0,0,0)" stroke="none" x="0" y="0" width="80" height="14" fill-opacity="0"/></g></g><g><g><rect fill="rgb(0,0,0)" stroke="none" x="0" y="0" width="80" height="14" fill-opacity="0"/></g></g><g><g><rect fill="rgb(0,0,0)" stroke="none" x="16.984375" y="0" width="46" height="14" fill-opacity="0"/></g></g><g><g><rect fill="rgb(0,0,0)" stroke="none" x="16.984375" y="0" width="46" height="14" fill-opacity="0"/></g><text fill="rgb(0, 255, 255)" stroke="none" font-family="Arial" font-size="12px" font-style="normal" font-weight="normal" text-decoration="" line-height="14px" x="17" y="12">pos</text><text fill="rgb(0, 255, 255)" stroke="none" font-family="Arial" font-size="12px" font-style="normal" font-weight="normal" text-decoration="" line-height="14px" x="36" y="12">:</text><text fill="rgb(0, 255, 255)" stroke="none" font-family="Arial" font-size="12px" font-style="normal" font-weight="normal" text-decoration="" line-height="14px" x="43" y="12">100</text></g></g><g transform="translate(0,0) matrix(1,0,0,1,508,180)"><g><g transform="translate(0,0) scale(0.8,0.3)"><g><path fill="rgb(0,0,0)" stroke="none" d="M 0 0 L 100 0 Q 100 0 100 0 L 100 100 Q 100 100 100 100 L 0 100 Q 0 100 0 100 L 0 0 Q 0 0 0 0 Z" fill-opacity="0"/><g transform="scale(1.25,3.3333333333333335)"><path fill="none" stroke="rbga(0,0,0,0)" d="M 0 0 L 80 0 Q 80 0 80 0 L 80 30 Q 80 30 80 30 L 0 30 Q 0 30 0 30 L 0 0 Q 0 0 0 0 Z" stroke-miterlimit="10" stroke-width="2"/></g></g></g></g></g><g transform="translate(0,0) matrix(1,0,0,1,508,180)"><g><g transform="translate(0,0) scale(1,0.5769230769230769)"><g><g transform="scale(1,1.7333333333333334)"><path fill="#434343" stroke="#000000" d="M 26 29.999999999999996 L 21.3 29.999999999999996 L 0 14.999999999999998 L 21.3 0 L 26 0" stroke-miterlimit="3" stroke-width="2"/></g></g></g></g></g><g transform="translate(0,0) matrix(1,0,0,1,534,180)"><g><g transform="translate(0,0) scale(0.58,0.5769230769230769)"><g><g><path fill="#434343" stroke="rgb(0,0,0)" d="M 0 0 L 50 0 Q 50 0 50 0 L 50 52 Q 50 52 50 52 L 0 52 Q 0 52 0 52 L 0 0 Q 0 0 0 0 Z" stroke-opacity="0" stroke-miterlimit="10"/></g><g><g transform="scale(1.7241379310344829,1.7333333333333334)"><path fill="none" stroke="#000000" d="M 0 0 L 28.999999999999996 0" stroke-miterlimit="3" stroke-width="2"/></g></g><g><g transform="scale(1.7241379310344829,1.7333333333333334)"><path fill="none" stroke="#000000" d="M 28.999999999999996 29.999999999999996 L 0 29.999999999999996" stroke-miterlimit="3" stroke-width="2"/></g></g></g></g></g></g><g transform="matrix(1,0,0,1,536,188)"><g><g><rect fill="rgb(0,0,0)" stroke="none" x="0" y="0" width="26" height="20" fill-opacity="0"/></g></g><g><g><rect fill="rgb(0,0,0)" stroke="none" x="0" y="0" width="26" height="14" fill-opacity="0"/></g></g><g><g><rect fill="rgb(0,0,0)" stroke="none" x="1" y="0" width="24" height="14" fill-opacity="0"/></g><text fill="rgb(0, 255, 255)" stroke="none" font-family="Arial" font-size="12px" font-style="normal" font-weight="normal" text-decoration="" line-height="14px" x="1" y="12">SQL</text></g></g><g transform="translate(0,0) matrix(1,0,0,1,563,180)"><g><g transform="translate(0,0) scale(1.0843373493975905,0.5769230769230769)"><g><g transform="scale(0.922222222222222,1.7333333333333334)"><path fill="#434343" stroke="#000000" d="M 0 0 L 27.000000000000004 0 L 5.313253012048194 14.999999999999998 L 27.000000000000004 29.999999999999996 L 0 29.999999999999996" stroke-miterlimit="3" stroke-width="2"/></g></g></g></g></g></g></svg>